<?xml version="1.0" standalone="no"?>
<!DOCTYPE svg PUBLIC "-//W3C//DTD SVG 1.1//EN" "http://www.w3.org/Graphics/SVG/1.1/DTD/svg11.dtd" >
<svg xmlns="http://www.w3.org/2000/svg">
<metadata></metadata>
<defs>
<font id="akzidenz-grotesk_std_lightRg" horiz-adv-x="521" >
<font-face units-per-em="1000" ascent="750" descent="-250" />
<missing-glyph horiz-adv-x="258" />
<glyph unicode="&#xfb01;" d="M23 427v50h105v132q0 16 2.5 35.5t13 36t31.5 28t59 11.5q17 0 30.5 -2t30.5 -5v-58q-8 3 -22 8t-35 5q-32 0 -41.5 -20t-9.5 -46v-125h108v-50h-108v-427h-59v427h-105zM388 0v477h58v-477h-58zM388 589v91h58v-91h-58z" />
<glyph unicode="&#xfb02;" d="M23 427v50h105v132q0 16 2.5 35.5t13 36t31.5 28t59 11.5q17 0 30.5 -2t30.5 -5v-58q-8 3 -22 8t-35 5q-32 0 -41.5 -20t-9.5 -46v-125h108v-50h-108v-427h-59v427h-105zM387 0v706h60v-706h-60z" />
<glyph horiz-adv-x="1000" />
<glyph horiz-adv-x="1000" />
<glyph unicode="&#xd;" horiz-adv-x="258" />
<glyph unicode=" "  horiz-adv-x="258" />
<glyph unicode="&#x09;" horiz-adv-x="258" />
<glyph unicode="&#xa0;" horiz-adv-x="258" />
<glyph unicode="!" horiz-adv-x="208" d="M86 0v116h76v-116h-76zM92 307v405h64v-405l-9 -131h-47z" />
<glyph unicode="&#x22;" horiz-adv-x="357" d="M51 743h83l-26 -291h-30zM223 743h83l-26 -291h-30z" />
<glyph unicode="#" horiz-adv-x="667" d="M42 259v54h175l13 97h-167v57h174l32 241h63l-34 -241h100l31 241h60l-33 -241h168v-57h-175l-13 -97h168v-54h-175l-35 -259h-62l38 259h-101l-38 -259h-58l36 259h-167zM276 313h101l13 97h-100z" />
<glyph unicode="$" horiz-adv-x="604" d="M26 178l71 7q23 -50 66 -82.5t102 -40.5v284q-54 15 -92 34.5t-61 42.5t-33.5 49.5t-10.5 55.5q0 57 24.5 91.5t57 53.5t65.5 25.5t50 7.5v62h58v-62q70 -6 123 -44t74 -119l-67 -7q-12 32 -28.5 52t-35 32t-36 17t-30.5 6v-247q45 -13 86.5 -27.5t73 -36.5t50.5 -53 t19 -76q0 -13 -3.5 -34.5t-14 -45t-30.5 -47t-53 -42.5q-17 -9 -49 -20.5t-79 -13.5v-92h-58v92q-18 2 -48.5 8t-64.5 24.5t-68 53t-58 92.5zM134 533q0 -84 131 -119v231q-42 -2 -67.5 -14.5t-39.5 -29.5t-19 -35.5t-5 -32.5zM323 60q50 0 81.5 16t49 38t24 45t6.5 38 q0 29 -12.5 49.5t-34 35.5t-51 25.5t-63.5 19.5v-267z" />
<glyph unicode="%" horiz-adv-x="875" d="M31 489q0 42 8.5 82t27.5 72t49 51.5t73 19.5q51 0 81.5 -25.5t47 -62t21.5 -76.5t5 -70q0 -48 -10 -89t-30 -70.5t-49.5 -46.5t-67.5 -17q-46 0 -76 22.5t-48 56.5t-25 74.5t-7 78.5zM82 483q0 -8 0.5 -24.5t4 -36.5t10 -41.5t18.5 -39t29.5 -28.5t43.5 -11 q35 0 55.5 19.5t31.5 48t14.5 60.5t3.5 56q0 85 -28 134.5t-76 49.5q-30 0 -50.5 -15.5t-33 -41.5t-18 -59.5t-5.5 -70.5zM245 -21l351 770l42 -19l-353 -769zM530 224q0 42 8.5 82t27.5 72t49 51.5t73 19.5q51 0 81.5 -25.5t47 -62t21.5 -76.5t5 -70q0 -48 -10 -89 t-30 -70.5t-49.5 -46.5t-67.5 -17q-46 0 -76 22.5t-48 56.5t-25 74.5t-7 78.5zM581 218q0 -8 0.5 -24.5t4 -36.5t10 -41.5t18.5 -39t29.5 -28.5t43.5 -11q35 0 55.5 19.5t31.5 48t14.5 60.5t3.5 56q0 85 -28 134.5t-76 49.5q-30 0 -50.5 -15.5t-33 -41.5t-18 -59.5 t-5.5 -70.5z" />
<glyph unicode="&#x26;" horiz-adv-x="646" d="M55 188q0 48 17.5 85.5t44 66.5t57.5 51t58 39q-5 6 -14.5 20t-19 33.5t-16.5 44.5t-7 53q0 63 38.5 100.5t101.5 37.5q29 0 54 -8t43.5 -23.5t29.5 -39t11 -53.5q0 -33 -12.5 -60.5t-32 -50.5t-44 -41.5t-48.5 -33.5q19 -30 40 -60.5t41 -61.5q17 -26 34.5 -51t37.5 -48 q17 47 20.5 75t4.5 53h63q-3 -35 -7.5 -60.5t-11 -46t-14.5 -37.5t-17 -35q18 -23 32 -39t26.5 -26.5t25.5 -15t29 -4.5v-61q-26 0 -47 7.5t-39 20t-34 29t-31 35.5q-29 -38 -76.5 -64.5t-117.5 -26.5q-9 0 -24.5 1t-34 5t-39.5 12.5t-42 23.5q-38 29 -59 68t-21 86z M124 191q0 -38 15.5 -65t38 -44t49 -24.5t48.5 -7.5q13 0 31.5 2.5t40 10.5t44.5 23.5t44 41.5q-46 63 -86.5 125t-83.5 125q-27 -17 -52 -35.5t-45 -40.5t-32 -49t-12 -62zM236 581q0 -32 16 -62t32 -57q19 9 38 21t34.5 28.5t25 36t9.5 43.5q0 8 -3 20t-11 23.5t-22.5 20 t-38.5 8.5q-27 0 -42.5 -9.5t-24 -22.5t-11 -27t-2.5 -23z" />
<glyph unicode="'" horiz-adv-x="185" d="M51 743h83l-26 -291h-30z" />
<glyph unicode="(" horiz-adv-x="308" d="M43 325q0 69 15.5 137.5t45.5 130t75 114t104 90.5l24 -33q-99 -81 -145 -187t-46 -248q0 -58 11 -121t34.5 -124t60.5 -115t89 -94l-25 -37q-119 91 -181 215t-62 272z" />
<glyph unicode=")" horiz-adv-x="313" d="M8 764l25 37q118 -91 180 -215t62 -271q0 -70 -15.5 -138.5t-46 -130.5t-76 -114.5t-104.5 -89.5l-24 32q99 82 145.5 188.5t46.5 248.5q0 64 -11.5 127.5t-35 122.5t-60 111t-86.5 92z" />
<glyph unicode="*" horiz-adv-x="357" d="M33 587l14 43l106 -28v109h48v-111l108 36l15 -41l-110 -39l67 -91l-37 -27l-68 90l-61 -90l-38 27l62 92z" />
<glyph unicode="+" horiz-adv-x="724" d="M94 263v60h238v237h60v-237h238v-60h-238v-238h-60v238h-238z" />
<glyph unicode="," horiz-adv-x="167" d="M44 0v116h79v-98q0 -27 -1.5 -49.5t-6 -42.5t-13.5 -40.5t-25 -43.5l-33 23q12 19 19 34t11.5 30.5t6 32t1.5 38.5h-38z" />
<glyph unicode="-" horiz-adv-x="341" d="M38 264v60h265v-60h-265z" />
<glyph unicode="." horiz-adv-x="167" d="M44 0v116h79v-116h-79z" />
<glyph unicode="/" horiz-adv-x="479" d="M10 0l385 706h74l-383 -706h-76z" />
<glyph unicode="0" horiz-adv-x="583" d="M44 360q0 30 4 68.5t14 78.5t28 78t45.5 68t66.5 48.5t91 18.5q60 0 101.5 -23t69 -58.5t43 -79.5t23 -85.5t9 -76t1.5 -52.5q0 -19 -3 -53t-11.5 -73.5t-25.5 -81t-44.5 -75t-68 -54.5t-97.5 -21q-61 0 -107.5 28t-77 77.5t-46 117.5t-15.5 150zM111 354q0 -55 8 -110.5 t28 -100t55.5 -72.5t89.5 -28q50 0 84 24.5t56 66t31.5 96.5t9.5 117q0 63 -10 120.5t-31.5 101.5t-56 70t-83.5 26q-39 0 -68 -16.5t-49 -43t-32.5 -60.5t-19.5 -68.5t-9.5 -66.5t-2.5 -56z" />
<glyph unicode="1" horiz-adv-x="583" d="M161 545v54q8 0 29 2t43 11t39 27.5t17 51.5v15h61v-706h-61v573q-8 -7 -21 -12t-28.5 -8.5t-31.5 -5.5t-30 -2h-17z" />
<glyph unicode="2" horiz-adv-x="583" d="M59 514q0 41 14 78t42.5 65.5t72 45.5t102.5 17q41 0 83.5 -11.5t77.5 -38t57 -69.5t22 -106q0 -26 -8 -65t-40 -90q-22 -35 -53 -68.5t-65.5 -64t-69.5 -57t-64.5 -46.5t-50 -32.5t-27.5 -16.5h354v-55h-446v55q41 25 85 55t85.5 62t78.5 64t64 60q8 9 23.5 26.5 t30.5 43.5t26 59.5t11 73.5q0 37 -12 67.5t-34.5 53t-55 35t-73.5 12.5q-34 0 -65 -11t-55 -31t-38 -49.5t-14 -67.5q0 -23 6 -42.5t14 -35t16 -26t13 -16.5l-82 10q-17 42 -21 69t-4 47z" />
<glyph unicode="3" horiz-adv-x="583" d="M43 202l67 22q0 -49 14 -83.5t38 -56t56.5 -31t70.5 -9.5q52 0 85 15t51.5 37.5t25 48t6.5 47.5q0 6 -1 20t-6 30.5t-14.5 34t-27.5 31.5q-30 23 -65 27t-71 4h-98v55h100q47 0 79.5 9.5t53 27t30 42t9.5 53.5q0 38 -14 64.5t-36.5 43.5t-50.5 25t-55 8q-42 0 -71 -13 t-48 -31.5t-29 -39t-13 -35.5q-3 -12 -3 -38l-70 19q9 39 26 73.5t44.5 60.5t67.5 41.5t96 15.5q41 0 82.5 -12t73.5 -38q23 -18 35.5 -40t18.5 -42t7.5 -37.5t1.5 -26.5q0 -45 -18.5 -82.5t-61.5 -55.5q-17 -8 -37 -11.5t-37 -5.5q30 -2 49.5 -7.5t30.5 -10.5 q13 -6 28.5 -17.5t29 -30t22.5 -44.5t9 -62q0 -53 -19.5 -92.5t-52 -65.5t-75 -39t-89.5 -13q-45 0 -79 9.5t-59.5 24.5t-42 32.5t-26.5 32.5q-11 17 -22 44.5t-16 71.5z" />
<glyph unicode="4" horiz-adv-x="583" d="M56 177v51l310 478h66v-474h110v-55h-110v-177h-61v177h-315zM125 232h246v375z" />
<glyph unicode="5" horiz-adv-x="583" d="M53 186l65 19q0 -34 11 -63.5t32 -51.5t52 -35t72 -13q44 0 76.5 15t54 41.5t32 63t10.5 78.5q0 37 -9.5 72.5t-29.5 63t-52 44t-76 16.5q-53 0 -96 -34.5t-57 -100.5l-51 6q3 105 6 190q1 36 2 71.5t2 64.5t1.5 49t0.5 24h373v-59h-315l-14 -243q8 15 20.5 30.5 t31.5 27.5t45 19.5t60 7.5q47 0 88 -17t71 -48.5t47.5 -77.5t17.5 -104q0 -52 -15.5 -99t-45.5 -81.5t-74 -55t-102 -20.5q-97 0 -158.5 51t-75.5 149z" />
<glyph unicode="6" horiz-adv-x="583" d="M57 331q0 38 3 78t11 79t23 75t39 67q37 48 83.5 69t106.5 21q48 0 84 -13.5t61.5 -35t41.5 -49.5t25 -58l-66 -23q-1 18 -7.5 39t-22.5 40t-43 31.5t-71 12.5q-61 0 -99 -25t-60 -66t-31.5 -92.5t-13.5 -104.5q29 41 74 69t118 28q8 0 24.5 -1t36.5 -6t42.5 -14.5 t43.5 -26.5q29 -23 45 -51.5t24.5 -56.5t10.5 -52t2 -37q0 -51 -15.5 -95t-46 -76.5t-75 -51t-102.5 -18.5q-53 0 -92.5 15.5t-66.5 41.5t-44 60.5t-26.5 73t-13 78t-3.5 75.5zM124 248q0 -25 8 -60.5t28 -67.5t55.5 -55t89.5 -23q55 0 88.5 21t52 50.5t24.5 61t6 53.5 q0 93 -46 142t-122 49q-31 0 -63.5 -10.5t-59.5 -32t-44 -53.5t-17 -75z" />
<glyph unicode="7" horiz-adv-x="583" d="M63 489v217h448v-59q-42 -57 -66.5 -96.5t-39.5 -66.5q-43 -78 -69 -150.5t-41 -135.5t-21.5 -113.5t-9.5 -84.5h-67q8 131 48 254.5t106 235.5q23 41 49.5 80t53.5 77h-334v-158h-57z" />
<glyph unicode="8" horiz-adv-x="583" d="M45 197q0 27 8.5 54.5t26 51.5t45 43t65.5 30q-17 6 -37.5 18t-38.5 31.5t-30 46.5t-12 62q0 37 14 70.5t41.5 59t69.5 41t97 15.5q47 0 88 -12t71 -35.5t47.5 -57.5t17.5 -78q0 -33 -9.5 -60t-26 -47t-39 -33.5t-47.5 -20.5q20 -5 44.5 -18.5t46 -36t36.5 -54.5t15 -74 q0 -44 -17.5 -82t-49.5 -65.5t-77 -43t-101 -15.5q-66 0 -113 19t-77 49t-44 67.5t-14 74.5zM112 196q0 -24 9 -50.5t30 -49t55.5 -37.5t85.5 -15q87 0 133.5 43t46.5 111q0 30 -12 56.5t-35 47t-56.5 32.5t-76.5 12q-33 0 -65.5 -9t-58 -27.5t-41 -46.5t-15.5 -67zM135 530 q0 -30 13.5 -54t36 -40.5t51 -25.5t59.5 -9q21 0 48.5 5.5t52 20t41.5 40t17 66.5q0 21 -7.5 44.5t-25.5 43t-49 32t-78 12.5t-77.5 -13.5t-48.5 -34t-25.5 -43.5t-7.5 -44z" />
<glyph unicode="9" horiz-adv-x="583" d="M40 475q0 53 16.5 98t47 77.5t74 51t97.5 18.5q51 0 97 -16t80.5 -56t54.5 -107t20 -168q0 -33 -2.5 -74.5t-12 -84.5t-27 -84t-47 -72.5t-73 -51t-105.5 -19.5q-162 0 -210 156l69 25q7 -65 42.5 -95.5t101.5 -30.5q65 0 103.5 27t59 69.5t27.5 96.5t10 108 q-23 -46 -72 -77.5t-124 -31.5q-46 0 -87.5 16t-72.5 47t-49 75.5t-18 102.5zM107 475q0 -33 8 -66t27.5 -59.5t52 -43t82.5 -16.5q43 0 76.5 14t57 36.5t35.5 52t12 59.5q0 40 -11 79t-33.5 69.5t-57 49t-82.5 18.5q-80 0 -123.5 -52t-43.5 -141z" />
<glyph unicode=":" horiz-adv-x="208" d="M86 0v116h79v-116h-79zM86 352v116h79v-116h-79z" />
<glyph unicode=";" horiz-adv-x="208" d="M86 0v116h79v-115q0 -25 -2 -45t-7.5 -38.5t-14.5 -36.5t-23 -39l-32 23q12 19 19 34t11.5 30t6 32t1.5 39h-38zM86 352v116h79v-116h-79z" />
<glyph unicode="&#x3c;" horiz-adv-x="724" d="M114 256v68l466 239v-64l-409 -208l409 -206v-65z" />
<glyph unicode="=" horiz-adv-x="724" d="M99 173v58h526v-58h-526zM99 349v59h526v-59h-526z" />
<glyph unicode="&#x3e;" horiz-adv-x="724" d="M145 17v65l409 208l-409 206v64l465 -236v-67z" />
<glyph unicode="?" horiz-adv-x="479" d="M67 530q0 44 12 75t30.5 52t41 33t44 18.5t40 8t27.5 1.5q50 0 87 -16.5t62.5 -44t38 -63.5t12.5 -75q0 -16 -5.5 -46t-25.5 -61q-17 -27 -44 -52.5t-51 -48.5q-21 -21 -33.5 -35.5t-18.5 -26t-7.5 -22t-1.5 -22.5v-36h-62v35q0 32 7 58.5t36 56.5q22 23 47 45t46 46.5 t35 52.5t14 62q0 5 -3 26.5t-16.5 45.5t-41.5 43t-77 19q-33 0 -58 -11t-41.5 -30t-24.5 -43t-8 -51q0 -14 4 -39.5t21 -57.5l-75 22q-2 11 -6.5 32t-4.5 49zM206 0v116h78v-116h-78z" />
<glyph unicode="@" horiz-adv-x="896" d="M69 233q0 96 35.5 182.5t97.5 152.5t146.5 105t181.5 39q66 0 121 -19.5t94 -57t60.5 -90.5t21.5 -121q0 -73 -21 -137t-54 -112t-73.5 -75.5t-79.5 -27.5q-45 0 -62.5 26t-17.5 67q-26 -38 -64.5 -65t-86.5 -27q-34 0 -58 13.5t-39.5 36t-22.5 51t-7 58.5q0 45 14 95 t41 91.5t66 69t88 27.5q47 0 75.5 -26.5t43.5 -68.5l16 72h59l-32 -146l-20 -88t-10 -89q0 -17 8.5 -33t28.5 -16q16 0 30.5 10t25.5 20q26 23 45.5 56t33 69.5t20.5 75t7 72.5q0 59 -18.5 104.5t-52 76.5t-80.5 47.5t-104 16.5q-58 0 -111 -16.5t-99 -46t-83 -70 t-63.5 -88.5t-41 -102t-14.5 -111q0 -75 26 -133.5t71.5 -98t107 -60.5t133.5 -21q95 0 183 39t155 106l27 -32q-78 -72 -167 -115t-198 -43q-79 0 -149 24.5t-122 71t-82 112.5t-30 149zM309 236q0 -21 5 -40.5t15.5 -34.5t27 -24.5t39.5 -9.5q38 0 66.5 23.5t47.5 57.5 t28.5 73.5t9.5 71.5q0 21 -5.5 40.5t-17 34.5t-29 24.5t-40.5 9.5q-37 0 -64.5 -24t-46 -59t-27.5 -74t-9 -69z" />
<glyph unicode="A" horiz-adv-x="646" d="M10 0l288 706h56l281 -706h-73l-81 213h-316l-81 -213h-74zM187 267h274l-136 361z" />
<glyph unicode="B" horiz-adv-x="667" d="M81 0v706h317q19 0 41.5 -2t45.5 -9.5t44.5 -21.5t39.5 -38q23 -32 28.5 -61.5t5.5 -43.5q0 -22 -7 -46.5t-22 -46t-39 -37t-59 -20.5q72 -14 111 -60.5t39 -120.5q0 -12 -2.5 -33.5t-12 -46.5t-28.5 -49.5t-53 -42.5q-35 -19 -76.5 -23t-81.5 -4h-291zM148 61h251 q72 0 116 33.5t44 102.5q0 10 -2 25.5t-9 33t-21.5 35.5t-38.5 32q-33 20 -70 23t-74 3h-196v-288zM148 407h229q44 0 73.5 10t48 26.5t26.5 39.5t8 48q0 9 -3 29t-18 40q-13 17 -30 26.5t-36 14t-39.5 5t-39.5 0.5h-219v-239z" />
<glyph unicode="C" horiz-adv-x="667" d="M50 349q0 36 5 78t17.5 84t34.5 80.5t55.5 68t80 47t108.5 17.5q64 0 109 -15t76.5 -40.5t52.5 -58.5t36 -69l-68 -34q-6 29 -19.5 57t-37.5 50.5t-60 36.5t-87 14q-52 0 -89.5 -16t-63 -42.5t-41.5 -59.5t-24.5 -67.5t-11.5 -66.5t-3 -56q0 -45 7 -99.5t32 -102.5 t74 -80.5t133 -32.5q76 0 124.5 41.5t66.5 108.5l63 -38q-42 -87 -103 -129.5t-159 -42.5q-93 0 -153 35t-94.5 89t-47.5 118.5t-13 124.5z" />
<glyph unicode="D" horiz-adv-x="688" d="M81 0v706h219q36 0 68.5 -1.5t62.5 -9t57.5 -23.5t54.5 -44q15 -16 31.5 -40.5t31 -58t23.5 -77t9 -97.5q0 -14 -2 -44.5t-11 -69t-28 -80t-52 -78.5q-8 -9 -32 -29.5t-59 -34.5q-18 -7 -36 -10.5t-40 -5.5t-49.5 -2.5t-63.5 -0.5h-184zM149 60h106q70 0 114.5 4t73.5 18 q35 16 59.5 46.5t39.5 68t21.5 78.5t6.5 78q0 26 -5.5 66.5t-21 82t-43 77.5t-72.5 52q-15 5 -29.5 8t-32.5 4.5t-40.5 1.5h-52.5h-124v-585z" />
<glyph unicode="E" horiz-adv-x="604" d="M81 0v706h461v-61h-394v-252h357v-62h-357v-269h419v-62h-486z" />
<glyph unicode="F" horiz-adv-x="562" d="M81 0v706h462v-59h-397v-239h356v-58h-356v-350h-65z" />
<glyph unicode="G" horiz-adv-x="708" d="M50 348q0 60 15 126.5t51.5 122t97.5 91.5t153 36q67 0 112 -19t74.5 -47t46.5 -59t27 -54l-63 -34q-8 30 -22.5 58.5t-37.5 50t-55 35t-76 13.5q-50 0 -96 -19t-80.5 -58t-55 -99t-20.5 -141q0 -76 17 -134t47.5 -97t73.5 -58.5t95 -19.5q10 0 30 1.5t43 9.5t47.5 24.5 t44.5 46t32.5 74.5t12.5 110h-260v61h318v-369h-58v118q-15 -38 -38 -64t-51.5 -42t-60 -23t-63.5 -7q-81 0 -138.5 31.5t-93.5 83t-52.5 117t-16.5 134.5z" />
<glyph unicode="H" horiz-adv-x="729" d="M81 0v706h66v-315h434v315h67v-706h-67v331h-434v-331h-66z" />
<glyph unicode="I" horiz-adv-x="229" d="M81 0v706h67v-706h-67z" />
<glyph unicode="J" horiz-adv-x="500" d="M13 194l71 16q-1 -8 -1 -16v-17q0 -5 0.5 -16.5t3.5 -25.5t9.5 -29t18.5 -27q14 -13 31 -20.5t33.5 -11t29.5 -4t19 -0.5q7 0 19.5 1t27.5 5.5t29.5 14t26.5 27.5q8 13 12.5 29.5t6.5 34.5t2.5 35.5t0.5 32.5v483h66v-490q0 -49 -7.5 -91.5t-29 -73.5t-60 -49t-100.5 -18 q-28 0 -57 4.5t-55.5 17.5t-48 35.5t-34.5 59.5q-5 14 -7.5 29t-4 28t-2 23t-0.5 13z" />
<glyph unicode="K" horiz-adv-x="667" d="M81 0v706h68v-394l384 394h92l-276 -280l300 -426h-82l-264 382l-154 -155v-227h-68z" />
<glyph unicode="L" horiz-adv-x="562" d="M81 0v706h68v-644h390v-62h-458z" />
<glyph unicode="M" horiz-adv-x="792" d="M81 0v706h79l239 -599l229 599h83v-706h-66q0 3 0.5 30.5t1 70.5t1 96.5t0.5 108.5q1 130 2 294l-230 -600h-46l-235 600q2 -164 4 -295q1 -56 1.5 -109.5t1 -96.5t1 -70t0.5 -29h-66z" />
<glyph unicode="N" horiz-adv-x="708" d="M81 0v706h66l419 -604q-1 165 -2 296q0 56 -0.5 110t-1 97t-1 70.5t-0.5 30.5h67v-706h-67l-414 610v-610h-66z" />
<glyph unicode="O" horiz-adv-x="708" d="M50 356q0 32 5 72t18 81t35 79.5t56 69t81.5 48.5t110.5 18q70 0 126 -24.5t95 -71t60 -114t21 -152.5q0 -68 -16 -136t-52 -122t-93.5 -88t-140.5 -34q-90 0 -149.5 37t-94 92.5t-48.5 121t-14 123.5zM121 352q0 -22 3 -54t12 -66.5t25 -68.5t41.5 -61t62.5 -43.5 t88 -16.5q68 0 113 31t72 78.5t38 104t11 108.5q0 41 -10 93t-36 98.5t-71 78.5t-114 32q-66 0 -110.5 -28.5t-72.5 -74t-40 -101t-12 -110.5z" />
<glyph unicode="P" horiz-adv-x="625" d="M81 0v706h283q47 0 79 -2.5t54.5 -9t38.5 -17t31 -27.5q14 -17 30 -50t16 -87q0 -33 -9.5 -66.5t-30.5 -61.5q-19 -24 -42.5 -37.5t-52.5 -20t-65.5 -8t-80.5 -1.5h-187v-318h-64zM145 377h247q33 0 61.5 7t49.5 23t33 42t12 65q0 9 -2.5 32t-17.5 48q-12 20 -28.5 31.5 t-35 17t-39 6.5t-41.5 1h-239v-273z" />
<glyph unicode="Q" horiz-adv-x="708" d="M50 346q0 80 20.5 149t60.5 120t98 80t133 29q84 0 141 -34.5t92 -88t50 -117.5t15 -123q0 -15 -1 -41t-7 -58.5t-18 -69.5t-34 -75l95 -88l-42 -45l-89 82q-12 -12 -30 -27t-43.5 -27.5t-58.5 -21t-76 -8.5q-58 0 -103.5 16t-79.5 43.5t-57.5 64t-38 77t-21 82.5 t-6.5 81zM120 348q0 -23 3 -54.5t12 -66t25.5 -68t42.5 -60.5t64 -43.5t89 -16.5q55 0 99 22t74.5 62.5t46.5 98t16 128.5q0 25 -3 58.5t-12.5 68.5t-25.5 69t-42 60.5t-62.5 43t-87.5 16.5q-70 0 -116 -31t-73.5 -78.5t-38.5 -103t-11 -105.5z" />
<glyph unicode="R" horiz-adv-x="646" d="M81 0v706h274q29 0 57 -3t54.5 -10.5t49 -21t40.5 -34.5q18 -22 31.5 -56t13.5 -77q0 -47 -17 -82.5t-45.5 -59.5t-66.5 -36.5t-80 -12.5l229 -313h-84l-223 313h-165v-313h-68zM149 371h211q32 0 63.5 5t56 20t40 41.5t15.5 69.5q0 10 -3 32.5t-18 46.5q-12 21 -28.5 33 t-36 18t-40.5 7.5t-42 1.5h-218v-275z" />
<glyph unicode="S" horiz-adv-x="604" d="M49 178l67 35q2 -32 5 -48.5t11 -30.5q8 -16 22 -33t35.5 -30t52 -21.5t70.5 -8.5q49 0 85.5 12t61 33t36.5 48t12 57q0 59 -37.5 90t-112.5 51l-81 21q-30 8 -63.5 20t-62 33t-47 53.5t-18.5 81.5q0 37 14 70t42.5 58t72.5 40t104 15q36 0 72.5 -7t68.5 -24.5 t58.5 -47.5t43.5 -76l-62 -33q-5 17 -11.5 32t-17.5 29q-7 11 -20 23.5t-32 23.5t-44.5 18t-57.5 7q-46 0 -77.5 -11.5t-51 -29.5t-28.5 -40.5t-9 -44.5q0 -34 14 -56.5t35.5 -37t48.5 -23t52 -15.5l68 -18q48 -13 86 -30t65 -41t41.5 -55.5t14.5 -73.5q0 -14 -3 -33 t-12 -40.5t-26 -44t-46 -43.5q-12 -9 -28.5 -17.5t-37.5 -16t-48 -12t-62 -4.5q-51 0 -94 11t-77 35t-57.5 61t-34.5 89z" />
<glyph unicode="T" horiz-adv-x="542" d="M15 647v59h512v-59h-223v-647h-67v647h-222z" />
<glyph unicode="U" horiz-adv-x="688" d="M80 249v457h66v-475q0 -59 19.5 -95.5t49 -57t64.5 -27.5t66 -7q95 0 145.5 47.5t50.5 156.5v458h67v-443q0 -58 -12.5 -109.5t-42.5 -89.5t-81 -60t-128 -22q-17 0 -43.5 2.5t-55.5 11t-58.5 26t-53 47t-38.5 73.5t-15 107z" />
<glyph unicode="V" horiz-adv-x="604" d="M10 706h74l217 -614l222 614h71l-265 -706h-60z" />
<glyph unicode="W" horiz-adv-x="875" d="M10 706h72l166 -586l168 586h46l174 -586l161 586h67l-201 -706h-54l-169 571l-168 -571h-53z" />
<glyph unicode="X" horiz-adv-x="667" d="M21 0l268 380l-231 326h85l192 -285l196 285h81l-232 -326l266 -380h-83l-228 338l-237 -338h-77z" />
<glyph unicode="Y" horiz-adv-x="625" d="M10 706h79l218 -351l227 351h81l-276 -414v-292h-66v292z" />
<glyph unicode="Z" horiz-adv-x="583" d="M29 0v44l435 602h-409v60h499v-46l-430 -600h424v-60h-519z" />
<glyph unicode="[" horiz-adv-x="271" d="M74 -144v923h170v-51h-109v-822h109v-50h-170z" />
<glyph unicode="\" horiz-adv-x="479" d="M10 706h76l383 -706h-74z" />
<glyph unicode="]" horiz-adv-x="271" d="M26 -93h109v823h-109v50h170v-923h-170v50z" />
<glyph unicode="^" horiz-adv-x="724" d="M128 289l199 417h68l201 -417h-64l-170 360l-170 -360h-64z" />
<glyph unicode="_" horiz-adv-x="500" d="M-10 -147h520v-59h-520v59z" />
<glyph unicode="`" horiz-adv-x="271" d="M23 698h112l113 -140h-53z" />
<glyph unicode="a" horiz-adv-x="500" d="M45 120q0 36 15 61t45 43.5t75 33t104 27.5l80 18v37q0 17 -5 34.5t-17.5 31.5t-34 22.5t-54.5 8.5q-73 0 -101 -28.5t-28 -86.5l-65 11q9 73 56.5 114.5t130.5 41.5q31 0 62.5 -6t56.5 -21.5t40.5 -43.5t15.5 -73v-209q0 -24 1 -41t7 -27.5t18.5 -15.5t34.5 -5h10v-47 h-12q-60 0 -88 18t-28 69q-4 -13 -16.5 -30t-33.5 -32t-50.5 -25t-68.5 -10q-38 0 -66 11t-47 29t-28 41.5t-9 48.5zM102 121q0 -12 5 -26t16.5 -26t30 -19.5t44.5 -7.5q22 0 45 6.5t44 18t38 28t26 37.5q7 15 10 33t3 51v36l-30 -8q-61 -16 -104.5 -27.5t-72 -24t-42 -29 t-13.5 -42.5z" />
<glyph unicode="b" d="M75 0v706h57v-310q6 13 17 28.5t29 29.5t43 23.5t57 9.5q54 0 91.5 -23.5t61.5 -60.5t35 -82.5t11 -89.5q0 -36 -8.5 -78t-30.5 -78.5t-60 -61t-97 -24.5q-31 0 -55.5 8.5t-43 22t-30.5 30.5t-20 35v-85h-57zM132 239q0 -28 5 -62.5t20 -64.5t43 -50t74 -20 q67 0 103.5 48t36.5 139q0 41 -8 78t-25.5 65.5t-45 45t-66.5 16.5q-67 0 -102 -50t-35 -145z" />
<glyph unicode="c" horiz-adv-x="479" d="M44 235q0 59 17 106t47.5 80t72.5 50.5t92 17.5q38 0 67.5 -9.5t51.5 -26t37.5 -38t24.5 -46.5l-55 -13q-16 40 -51.5 60t-77.5 20q-41 0 -71.5 -16.5t-50.5 -43.5t-30 -63t-10 -75q0 -40 9 -76t28.5 -63t49 -43t70.5 -16q45 0 76.5 20.5t52.5 59.5l60 -14 q-11 -23 -27 -44t-39 -37.5t-53.5 -26.5t-71.5 -10q-51 0 -91.5 18t-69 50.5t-43.5 78t-15 100.5z" />
<glyph unicode="d" d="M44 239q0 53 14.5 98.5t41.5 78.5t65 52t85 19t85.5 -22.5t52.5 -63.5v305h58v-706h-58v86q-17 -48 -58 -72.5t-89 -24.5q-45 0 -81 19t-62 52.5t-40 79.5t-14 99zM108 238q0 -52 12 -89t31.5 -60t45 -33.5t53.5 -10.5q29 0 54.5 10.5t44 33t29.5 57.5t11 84v26 q0 59 -14.5 94t-35.5 53.5t-44.5 24t-41.5 5.5q-68 0 -106.5 -52.5t-38.5 -142.5z" />
<glyph unicode="e" d="M44 243q0 61 19 107t49.5 77t70 46.5t81.5 15.5q51 0 90.5 -20.5t67.5 -54t42.5 -77t14.5 -90.5v-9h-370v-14q0 -27 6.5 -58.5t24.5 -59t49 -46t80 -18.5q16 0 36 3t40.5 13t41 30t37.5 54l55 -16q-8 -18 -22.5 -42t-38.5 -45.5t-59.5 -36t-86.5 -14.5q-73 0 -117.5 28 t-69 68t-33 84t-8.5 75zM110 287h301q-5 46 -21.5 75t-38 45.5t-45 22.5t-43.5 6q-38 0 -65.5 -14t-46 -35.5t-28.5 -48t-13 -51.5z" />
<glyph unicode="f" horiz-adv-x="313" d="M23 427v50h105v132q0 16 2.5 35.5t13 36t31.5 28t59 11.5q17 0 30.5 -2t30.5 -5v-58q-8 3 -22 8t-35 5q-32 0 -41.5 -20t-9.5 -46v-125h108v-50h-108v-427h-59v427h-105z" />
<glyph unicode="g" horiz-adv-x="542" d="M44 241q0 66 17.5 112.5t46.5 76.5t66.5 43.5t77.5 13.5q27 0 53 -7t47 -20t36 -31t21 -40v88h57v-507q0 -38 -7 -76t-29.5 -68.5t-64 -50t-111.5 -19.5q-58 0 -97 15.5t-63 40t-34.5 55t-11.5 59.5l62 11q3 -20 9 -42.5t21.5 -42t44.5 -32.5t77 -13q45 0 73.5 12 t45 35.5t22.5 59t6 82.5v96q-1 -9 -9.5 -26t-26.5 -34t-48 -29.5t-74 -12.5q-47 0 -85 17.5t-65 50.5t-42 79.5t-15 103.5zM104 242q0 -42 9 -78.5t27.5 -63.5t47 -42t68.5 -15q43 0 72 14.5t46.5 41t25 64t7.5 83.5q0 32 -5.5 65.5t-21 61t-44.5 45.5t-77 18 q-34 0 -62.5 -12t-49 -36.5t-32 -60.5t-11.5 -85z" />
<glyph unicode="h" d="M75 0v706h60v-305q6 12 16.5 26.5t28 28t43 22.5t60.5 9q8 0 23.5 -1.5t34.5 -7.5t38.5 -17.5t34.5 -32.5q10 -13 16 -28t9.5 -33.5t4.5 -42t1 -55.5v-269h-58v302q0 23 -4 46t-16 42t-34 31t-58 12q-27 0 -47 -7t-34.5 -17t-24 -21.5t-14.5 -21.5q-7 -14 -11 -29 t-6 -33.5t-2.5 -42.5t-0.5 -55v-206h-60z" />
<glyph unicode="i" horiz-adv-x="208" d="M75 0v477h58v-477h-58zM75 589v91h58v-91h-58z" />
<glyph unicode="j" horiz-adv-x="208" d="M-48 -180l10 -6q21 -11 41 -14.5t28 -3.5q32 0 38 20t6 64v597h58v-586q0 -41 -3 -65.5t-13 -41.5q-8 -14 -26 -27t-53 -13q-12 0 -35 3t-51 17v56zM75 589v91h58v-91h-58z" />
<glyph unicode="k" horiz-adv-x="500" d="M75 0v706h58v-480l268 251h74l-199 -190l213 -287h-72l-182 247l-102 -97v-150h-58z" />
<glyph unicode="l" horiz-adv-x="208" d="M74 0v706h60v-706h-60z" />
<glyph unicode="m" horiz-adv-x="771" d="M75 0v477h59v-99q5 28 18.5 48.5t33 34t43 20t47.5 6.5q29 0 49.5 -7.5t35 -18.5t23.5 -23.5t13 -22.5q3 -8 5.5 -18.5t4.5 -28.5q5 20 9.5 30t9.5 18q6 11 16 23t25.5 23t37.5 18t51 7q24 0 45.5 -5t40.5 -19q20 -13 30.5 -32t16 -44t6.5 -56.5t1 -71.5v-259h-59v299 q0 43 -5 71.5t-28 45.5q-17 13 -34 15t-25 2q-40 0 -67.5 -21t-44.5 -56q-7 -14 -10.5 -29t-5.5 -33t-2.5 -41t-0.5 -54v-199h-58v265q0 48 -2 77.5t-13 49.5q-12 22 -33 31.5t-44 9.5q-10 0 -23.5 -2t-28 -8.5t-28.5 -19.5t-26 -34q-9 -16 -13.5 -33t-7 -37.5t-3 -46 t-0.5 -60.5v-192h-59z" />
<glyph unicode="n" d="M75 0v477h59v-85q2 5 9 20.5t24 32t45.5 29.5t71.5 13q33 0 58 -8t42.5 -20.5t28 -27t16.5 -26.5q12 -26 14.5 -55t2.5 -79v-271h-59v248q0 48 -1.5 78.5t-9.5 51.5q-7 17 -18.5 28t-25.5 17t-28.5 8.5t-26.5 2.5q-37 0 -64 -13t-44.5 -35t-26 -51t-8.5 -62v-273h-59z " />
<glyph unicode="o" d="M44 233q0 56 15 102.5t43 81t68.5 53.5t91.5 19q56 0 96 -21.5t66.5 -57t39 -80t13.5 -90.5q0 -66 -19.5 -114t-51 -78.5t-70.5 -45t-78 -14.5q-46 0 -85.5 16.5t-68 48t-44.5 77t-16 103.5zM107 233q0 -55 13 -92t34.5 -59.5t49 -32t55.5 -9.5t55.5 10t49.5 33t36 62 t14 97q0 56 -13.5 93.5t-35 60.5t-49 33t-55.5 10q-32 0 -60 -12t-49 -37.5t-33 -64t-12 -92.5z" />
<glyph unicode="p" d="M75 -253v730h58v-78q6 14 16.5 29t28 28.5t42 22t57.5 8.5q44 0 75.5 -13.5t53.5 -36t36 -50t22 -55t10.5 -53t2.5 -42.5q0 -27 -8 -69t-30 -82t-61 -68.5t-101 -28.5q-31 0 -55 8.5t-42 21.5t-29.5 29.5t-17.5 31.5v-333h-58zM133 221q0 -49 11 -85.5t41 -61.5 q24 -20 47.5 -24t35.5 -4q41 0 69.5 18t46 47t25 64.5t7.5 69.5q0 33 -7.5 66.5t-25 60.5t-46 44t-70.5 17q-43 0 -69.5 -19t-40.5 -47.5t-19 -61.5t-5 -60v-24z" />
<glyph unicode="q" horiz-adv-x="500" d="M44 242q0 61 16 107t43 76.5t63.5 46t77.5 15.5q22 0 44 -5t41.5 -15.5t35 -26.5t23.5 -39v76h57v-730h-57v335q-13 -33 -34 -51.5t-42.5 -27.5t-40.5 -11.5t-29 -2.5q-39 0 -74.5 16.5t-63 48.5t-44 79t-16.5 109zM105 244q0 -37 9 -73t27.5 -64.5t46.5 -45.5t66 -17 q32 0 49 8.5t26 16.5q20 16 31.5 36t18 42t8.5 45.5t2 46.5q0 21 -1.5 44.5t-7.5 45.5t-17 42t-30 35q-10 8 -29.5 17.5t-51.5 9.5q-41 0 -69 -17.5t-45.5 -45t-25 -61t-7.5 -65.5z" />
<glyph unicode="r" horiz-adv-x="313" d="M75 0v477h59v-76q19 42 52.5 62.5t78.5 20.5h17t24 -2v-53q-18 3 -38 3q-38 0 -64 -13t-41.5 -36.5t-22 -54.5t-6.5 -67v-261h-59z" />
<glyph unicode="s" horiz-adv-x="458" d="M34 116l58 20q3 -12 11.5 -28.5t24.5 -31t40 -24.5t57 -10q35 0 58 8.5t37.5 22t20.5 30t6 32.5q0 31 -22 52t-81 34l-56 12q-56 12 -90 39t-34 80q0 6 1 17.5t5 25t12.5 27.5t22.5 27q25 23 61.5 31.5t68.5 8.5q5 0 18 -0.5t29.5 -3.5t35 -9t34.5 -18q28 -20 38.5 -42.5 t13.5 -34.5l-56 -15q-4 21 -16 34.5t-28 21.5t-35 11.5t-37 3.5q-36 0 -58 -8.5t-33.5 -20.5t-15 -26t-3.5 -25q0 -21 10 -34.5t25 -22t32.5 -13t32.5 -7.5l50 -10q63 -13 97.5 -48t34.5 -91q0 -21 -9 -45.5t-30 -46.5t-55 -36.5t-84 -14.5q-15 0 -39.5 3t-52 15.5t-54.5 38 t-46 71.5z" />
<glyph unicode="t" horiz-adv-x="292" d="M15 427v50h100v203h57v-203h105v-50h-105v-326q0 -10 1 -20.5t5 -18.5t12 -13.5t21 -5.5q18 0 35 10t31 20v-60q-10 -8 -29 -15t-50 -7q-6 0 -16.5 1t-22 5t-21.5 12.5t-16 24.5q-5 13 -6 35.5t-1 42.5v315h-100z" />
<glyph unicode="u" d="M75 243v234h60v-247q0 -44 1.5 -70t6.5 -46q3 -11 9 -23t17.5 -22.5t29 -17.5t43.5 -7q9 0 22.5 1t29 6t31.5 16t30 30q22 30 27 66t5 73v241h59v-477h-59v86q-20 -45 -55.5 -71t-96.5 -26q-50 0 -90.5 25.5t-56.5 75.5q-8 25 -10.5 60.5t-2.5 92.5z" />
<glyph unicode="v" horiz-adv-x="417" d="M10 477h59l132 -388l147 388h58l-183 -477h-48z" />
<glyph unicode="w" horiz-adv-x="688" d="M21 477h57l128 -385l117 385h50l118 -385l119 385h57l-151 -477h-49l-118 393l-117 -393h-50z" />
<glyph unicode="x" horiz-adv-x="458" d="M21 0l175 248l-161 229h69l125 -182l129 182h63l-160 -229l175 -248h-67l-140 203l-145 -203h-63z" />
<glyph unicode="y" horiz-adv-x="437" d="M11 -163q20 -14 35 -18.5t27 -4.5q13 0 21.5 4t15.5 13t13.5 22.5t13.5 32.5l44 114l-165 477h57l139 -406l155 406h60l-225 -570q-14 -37 -26 -65t-25.5 -46.5t-31.5 -28t-45 -9.5q-25 0 -40 7t-23 12v60z" />
<glyph unicode="z" horiz-adv-x="396" d="M28 0v37l258 389h-236v51h319v-35l-258 -389h265v-53h-348z" />
<glyph unicode="{" horiz-adv-x="268" d="M19 292v51q24 3 40.5 7.5t26.5 15t14 29.5t4 52v190q0 28 3 54t15.5 46.5t37 33t67.5 12.5h28v-49h-21q-25 0 -39 -7t-21 -19.5t-8 -29t-1 -36.5v-190q0 -31 -3.5 -52.5t-12.5 -36.5t-25 -26t-40 -20q46 -13 63.5 -42.5t17.5 -91.5v-185q0 -31 3 -50t12 -29.5t24 -14 t39 -3.5h12v-49h-12q-73 0 -106 30t-33 109v195q0 33 -3.5 52.5t-12.5 30.5t-25.5 15.5t-43.5 7.5z" />
<glyph unicode="|" horiz-adv-x="229" d="M83 -143v921h61v-921h-61z" />
<glyph unicode="}" horiz-adv-x="268" d="M12 -99h21q26 0 39.5 7t20.5 19.5t8 29t1 36.5v190q0 31 3.5 52.5t12.5 36.5t25 26t40 20q-23 7 -38.5 17t-25 25.5t-13.5 38t-4 53.5v185q0 31 -3 50t-12 29.5t-24 14t-39 3.5h-12v49h12q73 0 106.5 -30t33.5 -109v-195q0 -33 3 -52.5t12 -30.5t25.5 -15.5t43.5 -7.5 v-51q-24 -3 -40.5 -7.5t-26 -15t-13.5 -29.5t-4 -52v-190q0 -28 -4 -54t-17 -46.5t-37.5 -33t-65.5 -12.5h-28v49z" />
<glyph unicode="~" horiz-adv-x="724" d="M75 266q38 54 74 77.5t83 23.5q15 0 27 -1.5t26.5 -6t34.5 -12.5t50 -22l41 -18q17 -7 29 -12t20.5 -8t15.5 -4t14 -1q30 0 56.5 16.5t63.5 60.5l40 -41q-44 -55 -82.5 -77t-82.5 -22q-28 0 -60 11.5t-59 25.5l-36 18q-35 17 -58.5 23.5t-45.5 6.5q-15 0 -26.5 -3.5 t-23 -12.5t-26 -24t-35.5 -39z" />
<glyph unicode="&#xa1;" horiz-adv-x="208" d="M47 596v116h75v-116h-75zM52 0v405l9 131h47l9 -131v-405h-65z" />
<glyph unicode="&#xa2;" horiz-adv-x="479" d="M44 237q0 63 18.5 109t47 76t63 45.5t67.5 19.5v93h50v-92q9 0 30.5 -3.5t46.5 -15.5t49 -35.5t38 -64.5l-55 -14q-9 26 -25.5 41.5t-33.5 23.5t-31 11t-19 4v-393q23 4 40 12.5t29 19t20 22.5t15 24l60 -13q-6 -16 -18.5 -35t-32.5 -36.5t-48 -30.5t-65 -16v-102h-50 v102q-54 6 -91 29.5t-60.5 58t-34 76.5t-10.5 84zM108 237q0 -8 1.5 -28t7.5 -44.5t19 -50t36 -43.5q22 -17 42 -22t26 -7v391q-40 -9 -65.5 -30t-40.5 -48.5t-20.5 -58t-5.5 -59.5z" />
<glyph unicode="&#xa3;" horiz-adv-x="604" d="M42 75q0 12 5 25.5t16.5 25t30.5 18.5t46 7q5 0 16.5 -1t27 -4t33 -8.5t33.5 -14.5q11 25 15 43.5t4 29.5q0 17 -7 38.5t-33 47.5h-132v52h93q-21 18 -42 39.5t-38 45.5t-28 50.5t-11 56.5q0 38 16.5 70.5t46 57t70.5 38.5t90 14q42 0 81.5 -11t70.5 -34t51.5 -58.5 t24.5 -85.5l-66 -13q-1 17 -3 31.5t-9 29.5q-6 13 -17.5 27t-30 26t-44.5 20t-60 8q-27 0 -54 -7t-49 -21.5t-35.5 -37t-13.5 -53.5t15 -57t36.5 -49t45 -44.5t40.5 -42.5h152v-52h-121q7 -11 17 -33.5t10 -56.5q0 -10 -4 -36t-22 -52q11 -6 27 -14t34 -15.5t35.5 -13 t30.5 -5.5q38 0 50.5 33t12.5 99l66 -7q-2 -18 -4 -49t-14 -61t-38.5 -52t-77.5 -22q-45 0 -80 16.5t-74 36.5q-27 -28 -57.5 -41.5t-71.5 -13.5q-30 0 -50.5 7.5t-32.5 19t-17.5 26t-5.5 27.5zM94 73q0 -9 5 -14.5t12.5 -9t15.5 -4.5t15 -1q5 0 14.5 0.5t21.5 3.5t25.5 9 t25.5 17q-12 8 -33.5 16.5t-55.5 8.5q-25 0 -35.5 -7.5t-10.5 -18.5z" />
<glyph unicode="&#xa4;" horiz-adv-x="667" d="M57 109l75 73q-30 41 -42.5 77t-12.5 82q0 45 12.5 80t42.5 75l-73 73l45 45l73 -72q39 29 75 41.5t81 12.5q46 0 87 -14t70 -40l74 73l46 -46l-74 -74q54 -70 54 -156q0 -45 -13 -81t-42 -76l74 -75l-46 -45l-74 75q-38 -29 -74 -41.5t-83 -12.5q-23 0 -42 2.5t-37 9 t-36.5 17t-39.5 25.5l-75 -73zM139 340q0 -42 15 -78.5t41.5 -63t63 -41.5t78.5 -15q41 0 75.5 15t60 41.5t40 62.5t14.5 79q0 42 -14.5 78.5t-40.5 62.5t-61 41t-77 15q-41 0 -76.5 -15t-62 -41.5t-41.5 -62.5t-15 -78z" />
<glyph unicode="&#xa5;" horiz-adv-x="625" d="M10 706h79l218 -348l227 348h81l-205 -307h157v-56h-194l-34 -53h228v-56h-228v-234h-66v234h-215v56h215l-32 53h-183v56h147z" />
<glyph unicode="&#xa6;" horiz-adv-x="229" d="M84 -143v396h61v-396h-61zM84 383v395h61v-395h-61z" />
<glyph unicode="&#xa7;" d="M39 16l47 46q35 -35 83.5 -58t99.5 -23q21 0 41.5 5.5t37 17t26.5 28.5t10 41q0 23 -12.5 39.5t-31 28.5t-39.5 21t-38 16q-62 27 -103 50t-65.5 46t-34.5 47.5t-10 53.5q0 54 32 96t83 59q-32 21 -51 47t-19 66q0 24 10 49t29.5 45t49 33t68.5 13q58 0 103 -24.5 t87 -61.5l-46 -45q-33 28 -67.5 49t-80.5 21q-37 0 -62 -20t-25 -59q0 -29 23 -48.5t58 -36t75.5 -32t75.5 -38t58 -54t23 -78.5q0 -57 -27.5 -94.5t-76.5 -62.5q38 -22 59.5 -50t21.5 -74q0 -39 -16 -68.5t-42 -49t-60 -29.5t-69 -10q-64 0 -122 26t-103 72zM115 377 q0 -17 5.5 -28.5t16.5 -24.5q10 -11 34.5 -26t53 -29t55.5 -25.5t42 -16.5q15 8 30.5 21.5t28.5 30t21 35t8 36.5q0 38 -27 66q-11 12 -32.5 24t-46 23.5t-48.5 20.5l-40 15q-18 -8 -36.5 -20t-32.5 -27.5t-23 -34t-9 -40.5z" />
<glyph unicode="&#xa8;" horiz-adv-x="271" d="M19 582v92h61v-92h-61zM191 582v92h61v-92h-61z" />
<glyph unicode="&#xa9;" horiz-adv-x="833" d="M61 353q0 75 27.5 140t75.5 113t113.5 75.5t140.5 27.5q74 0 138.5 -27.5t112.5 -75t76 -111.5t28 -138q0 -76 -27.5 -141.5t-75.5 -114t-113 -76.5t-140 -28t-140 27.5t-113 75.5t-75.5 113t-27.5 140zM93 352q0 -67 25.5 -126t69 -102.5t103 -69t126.5 -25.5t126 25.5 t102.5 69t69 102.5t25.5 127t-24.5 127.5t-68 103t-102.5 68.5t-127 25t-127 -25t-103 -69t-69.5 -103.5t-25.5 -127.5zM222 345q0 54 15 98t42.5 76t65.5 49.5t84 17.5q137 0 173 -138l-54 -12q-16 54 -45 77t-79 23q-68 0 -106 -49t-38 -137q0 -86 37.5 -133t106.5 -47 q51 0 84 28.5t45 83.5l53 -6q-17 -76 -65 -116.5t-121 -40.5q-45 0 -81.5 16t-62.5 46t-40 71.5t-14 92.5z" />
<glyph unicode="&#xaa;" horiz-adv-x="313" d="M26 483q0 28 14 46t36.5 30t52.5 19.5t61 14.5l31 7v11q0 10 -2 21t-8.5 20t-19.5 15t-35 6q-27 0 -41.5 -6.5t-21 -17t-8 -23.5t-1.5 -25l-50 9q3 29 14 49t27.5 32t37 17.5t41.5 5.5q22 0 42 -4.5t35.5 -15t24.5 -27t9 -39.5v-125q0 -31 4 -44.5t28 -13.5h12v-39h-10 q-11 0 -23.5 1t-23.5 5t-19 12.5t-10 22.5q-17 -27 -46.5 -37t-53.5 -10q-28 0 -46.5 8t-29.5 20.5t-16 27t-5 27.5zM72 486q0 -15 11.5 -29.5t41.5 -14.5q18 0 35 6t30.5 17.5t22 28t8.5 37.5v28l-89 -25q-26 -7 -43 -17.5t-17 -30.5z" />
<glyph unicode="&#xab;" horiz-adv-x="375" d="M38 309l118 185l48 -30l-100 -155l100 -141l-48 -31zM173 309l119 185l47 -30l-99 -155l99 -141l-47 -31z" />
<glyph unicode="&#xac;" horiz-adv-x="724" d="M71 263v60h566v-323h-61v263h-505z" />
<glyph unicode="&#xad;" horiz-adv-x="341" d="M38 264v60h265v-60h-265z" />
<glyph unicode="&#xae;" horiz-adv-x="833" d="M61 353q0 75 27.5 140t75.5 113t113.5 75.5t140.5 27.5q74 0 138.5 -27.5t112.5 -75t76 -111.5t28 -138q0 -76 -27.5 -141.5t-75.5 -114t-113 -76.5t-140 -28t-140 27.5t-113 75.5t-75.5 113t-27.5 140zM93 352q0 -67 25.5 -126t69 -102.5t103 -69t126.5 -25.5t126 25.5 t102.5 69t69 102.5t25.5 127t-24.5 127.5t-68 103t-102.5 68.5t-127 25t-127 -25t-103 -69t-69.5 -103.5t-25.5 -127.5zM285 128v450h133q75 0 107.5 -32t32.5 -94q0 -50 -22.5 -80.5t-66.5 -39.5l95 -204h-59l-92 198h-74v-198h-54zM339 373h78q48 0 67.5 18t19.5 61 q0 44 -20.5 60.5t-73.5 16.5h-71v-156z" />
<glyph unicode="&#xaf;" horiz-adv-x="271" d="M-1 582v62h273v-62h-273z" />
<glyph unicode="&#xb0;" horiz-adv-x="354" d="M30 601q0 30 11.5 57t31.5 47t47 31.5t57 11.5t56.5 -11.5t47 -32t32 -47t11.5 -57.5q0 -30 -11.5 -56.5t-31.5 -46.5t-47 -31.5t-57 -11.5t-57 11.5t-47 31.5t-31.5 47t-11.5 57zM90 601q0 -36 25.5 -61.5t61.5 -25.5t61 25.5t25 62.5q0 18 -6.5 33.5t-18.5 27 t-27.5 18.5t-33.5 7q-36 0 -61.5 -25.5t-25.5 -61.5z" />
<glyph unicode="&#xb1;" horiz-adv-x="724" d="M94 0v60h536v-60h-536zM94 348v60h238v228h60v-228h238v-60h-238v-229h-60v229h-238z" />
<glyph unicode="&#xb2;" horiz-adv-x="375" d="M40 582q0 34 12.5 59t33 41t47 24t54.5 8q32 0 60 -9.5t48 -27.5t31.5 -44.5t11.5 -60.5q0 -42 -20 -79t-51.5 -70t-70 -61.5t-74.5 -52.5h202v-44h-283v42q38 23 71.5 47t61.5 47t48.5 43t32.5 36q9 13 20.5 37.5t11.5 56.5q0 47 -28 72.5t-72 25.5q-30 0 -49.5 -10 t-31 -24.5t-16 -30.5t-4.5 -28q0 -15 4 -27t10 -22t12.5 -17.5t10.5 -12.5l-66 8q-5 12 -11 30t-6 44z" />
<glyph unicode="&#xb3;" horiz-adv-x="375" d="M30 398l52 17v-11q0 -34 11.5 -54t28 -30.5t34 -13.5t29.5 -3q29 0 47.5 8t30 20t16 27t4.5 29q0 39 -21 62.5t-69 23.5h-83v44h57q17 0 36 1.5t35 8.5t27 22t11 41q0 42 -26.5 62.5t-63.5 20.5q-28 0 -46.5 -10t-29.5 -24t-15 -29t-4 -25v-9l-54 14q5 19 13.5 41 t25 40.5t43 31t67.5 12.5q28 0 53 -7t44.5 -22.5t31 -39t11.5 -56.5q0 -31 -15 -56t-53 -37q29 -7 53 -33t24 -72q0 -18 -7 -41t-23.5 -44t-45 -35t-71.5 -14q-7 0 -26 1.5t-41 10t-44 26t-35 50.5q-8 20 -9.5 31.5t-2.5 20.5z" />
<glyph unicode="&#xb4;" horiz-adv-x="271" d="M24 558l112 140h111l-170 -140h-53z" />
<glyph unicode="&#xb5;" horiz-adv-x="536" d="M81 -216v687h61v-246q0 -54 5 -83.5t18 -49.5q14 -22 39.5 -35t53.5 -13q35 0 64.5 19t46.5 53q6 12 10 23t6 25.5t3 33.5t1 46v227h61v-357q0 -44 6.5 -58.5t26.5 -14.5q7 0 12 1t15 6v-50q-13 -4 -20.5 -5t-16.5 -1q-41 0 -59.5 19t-20.5 62q-25 -45 -56 -65t-79 -20 q-39 0 -66.5 13.5t-50.5 45.5q1 -69 2 -124q0 -24 0.5 -47t1 -42.5t0.5 -33v-16.5h-64z" />
<glyph unicode="&#xb6;" horiz-adv-x="643" d="M79 513q0 43 14 78.5t41.5 61t68 39.5t94.5 14h221v-44h-33v-829h-46v829h-157v-829h-46v498q-72 9 -114.5 57t-42.5 125z" />
<glyph unicode="&#xb7;" horiz-adv-x="187" d="M53 236v108h81v-108h-81z" />
<glyph unicode="&#xb8;" horiz-adv-x="271" d="M66 -70l41 70h24l-24 -47q3 1 11 2t18 1q29 -1 49 -17t20 -47q0 -21 -9 -36.5t-23.5 -25.5t-33 -15t-36.5 -5q-19 0 -37 3v27q8 -1 16 -1.5t16 -0.5q30 0 43 12.5t13 27.5q0 12 -11.5 24.5t-38.5 12.5q-7 0 -15.5 -1.5t-22.5 -8.5v25z" />
<glyph unicode="&#xb9;" horiz-adv-x="375" d="M102 597v44q44 0 61 14.5t17 42.5v8h48v-441h-48v345q-15 -8 -28.5 -10.5t-38.5 -2.5h-11z" />
<glyph unicode="&#xba;" horiz-adv-x="333" d="M29 554q0 29 7.5 57.5t24 51.5t43 37t63.5 14q36 0 62 -14t42.5 -36.5t24.5 -50.5t8 -56q0 -33 -9.5 -62t-27.5 -50.5t-44 -33.5t-58 -12q-36 0 -61.5 13.5t-42 35.5t-24.5 50t-8 56zM78 553q0 -31 7.5 -52.5t19.5 -34.5t28 -19t33 -6t33 6t28.5 19.5t20 35t7.5 53.5 q0 53 -20.5 85.5t-66.5 32.5q-38 0 -64 -28.5t-26 -91.5z" />
<glyph unicode="&#xbb;" horiz-adv-x="375" d="M36 167l99 155l-99 141l47 31l119 -172l-119 -185zM171 167l99 155l-99 141l48 31l118 -172l-118 -185z" />
<glyph unicode="&#xbc;" horiz-adv-x="875" d="M102 597v44q44 0 61 14.5t17 42.5v8h48v-441h-48v345q-15 -8 -28.5 -10.5t-38.5 -2.5h-11zM245 -21l351 770l42 -19l-353 -769zM539 108v38l191 296h49v-290h66v-44h-66v-108h-48v108h-192zM596 152h135v206z" />
<glyph unicode="&#xbd;" horiz-adv-x="875" d="M102 597v44q44 0 61 14.5t17 42.5v8h48v-441h-48v345q-15 -8 -28.5 -10.5t-38.5 -2.5h-11zM221 -21l352 770l41 -19l-353 -769zM540 317q0 35 12.5 59.5t33 41t47 24t54.5 7.5q33 0 60.5 -9.5t47.5 -27.5t31.5 -44.5t11.5 -60.5q0 -31 -12 -61.5t-37.5 -62t-66.5 -66 t-100 -73.5h202v-44h-283v42q37 23 71 47.5t62.5 47.5t49.5 43t31 35q23 32 27.5 58.5t4.5 35.5q0 45 -27.5 71.5t-72.5 26.5q-30 0 -49.5 -10.5t-31 -24.5t-16 -29.5t-4.5 -26.5q0 -15 4.5 -27.5t10.5 -23t12 -18l10 -12.5l-66 8q-5 12 -11 30t-6 44z" />
<glyph unicode="&#xbe;" horiz-adv-x="875" d="M30 398l52 17v-11q0 -34 11.5 -54t28 -30.5t34 -13.5t29.5 -3q29 0 47.5 8t30 20t16 27t4.5 29q0 39 -21 62.5t-69 23.5h-83v44h57q17 0 36 1.5t35 8.5t27 22t11 41q0 42 -26.5 62.5t-63.5 20.5q-28 0 -46.5 -10t-29.5 -24t-15 -29t-4 -25v-9l-54 14q5 19 13.5 41 t25 40.5t43 31t67.5 12.5q28 0 53 -7t44.5 -22.5t31 -39t11.5 -56.5q0 -31 -15 -56t-53 -37q29 -7 53 -33t24 -72q0 -18 -7 -41t-23.5 -44t-45 -35t-71.5 -14q-7 0 -26 1.5t-41 10t-44 26t-35 50.5q-8 20 -9.5 31.5t-2.5 20.5zM280 -21l352 770l41 -19l-353 -769zM539 108 v38l191 296h49v-290h66v-44h-66v-108h-48v108h-192zM596 152h135v206z" />
<glyph unicode="&#xbf;" horiz-adv-x="479" d="M17 184q0 16 5.5 47.5t25.5 62.5q17 27 44 52.5t51 48.5q21 21 33.5 34t18.5 24t7.5 21.5t1.5 26.5v36h62v-35q0 -32 -7 -58.5t-36 -56.5q-22 -23 -47 -45t-46 -46.5t-35 -52t-14 -62.5q0 -5 3 -26.5t16.5 -45.5t41.5 -43t77 -19q33 0 58 11t41.5 30t24.5 43t8 51 q0 14 -4 39.5t-21 57.5l75 -22q2 -11 7 -32t5 -49q0 -44 -12 -75t-30.5 -52t-41.5 -33t-44.5 -18.5t-39.5 -8t-28 -1.5q-49 0 -86.5 16.5t-63 44t-38 63t-12.5 72.5zM195 590v116h78v-116h-78z" />
<glyph unicode="&#xc0;" horiz-adv-x="646" d="M10 0l288 706h56l281 -706h-73l-81 213h-316l-81 -213h-74zM183 895h106l99 -125h-58zM187 267h274l-136 361z" />
<glyph unicode="&#xc1;" horiz-adv-x="646" d="M10 0l288 706h56l281 -706h-73l-81 213h-316l-81 -213h-74zM187 267h274l-136 361zM259 770l99 125h105l-147 -125h-57z" />
<glyph unicode="&#xc2;" horiz-adv-x="646" d="M10 0l288 706h56l281 -706h-73l-81 213h-316l-81 -213h-74zM187 267h274l-136 361zM200 772l105 123h42l104 -123h-49l-78 56l-77 -56h-47z" />
<glyph unicode="&#xc3;" horiz-adv-x="646" d="M10 0l288 706h56l281 -706h-73l-81 213h-316l-81 -213h-74zM168 787q2 6 8 23t17 35t28 31.5t40 13.5q18 0 36 -8.5t35.5 -18t32.5 -18t27 -8.5q20 0 31 16t19 33l39 -19q-9 -19 -17 -36t-18 -30t-23 -20t-32 -7q-17 0 -36.5 8t-37.5 17.5t-34 17.5t-27 8 q-20 0 -29 -15.5t-17 -35.5zM187 267h274l-136 361z" />
<glyph unicode="&#xc4;" horiz-adv-x="646" d="M10 0l288 706h56l281 -706h-73l-81 213h-316l-81 -213h-74zM184 784v97h67v-97h-67zM187 267h274l-136 361zM403 784v97h67v-97h-67z" />
<glyph unicode="&#xc5;" horiz-adv-x="646" d="M10 0l288 706h56l281 -706h-73l-81 213h-316l-81 -213h-74zM187 267h274l-136 361zM249 828q0 32 23 55t56 23t56 -23t23 -56t-23 -56t-56 -23t-56 23t-23 57zM286 826q0 -17 12.5 -29t29.5 -12t29.5 12.5t12.5 29.5t-12.5 29.5t-29.5 12.5t-29.5 -12.5t-12.5 -30.5z" />
<glyph unicode="&#xc6;" horiz-adv-x="1000" d="M0 0l452 706h499v-61h-411v-254h370v-62h-370v-269h430v-60h-496v204h-266l-129 -204h-79zM248 267h226v365z" />
<glyph unicode="&#xc7;" horiz-adv-x="667" d="M50 349q0 36 5 78t17.5 84t34.5 80.5t55.5 68t80 47t108.5 17.5q64 0 109 -15t76.5 -40.5t52.5 -58.5t36 -69l-68 -34q-6 29 -19.5 57t-37.5 50.5t-60 36.5t-87 14q-52 0 -89.5 -16t-63 -42.5t-41.5 -59.5t-24.5 -67.5t-11.5 -66.5t-3 -56q0 -45 7 -99.5t32 -102.5 t74 -80.5t133 -32.5q76 0 124.5 41.5t66.5 108.5l63 -38q-42 -86 -101.5 -128.5t-155.5 -43.5l-15 -29l12 2t18 1q27 0 47.5 -16t20.5 -48q0 -22 -9 -37.5t-23.5 -25.5t-32 -14.5t-34.5 -4.5q-12 0 -23 1t-16 2v27q12 -2 19.5 -2h14.5q26 1 39.5 12t13.5 28q0 14 -12 25.5 t-37 11.5q-13 0 -23.5 -4t-14.5 -6v25l30 52q-87 5 -143 41t-88.5 89t-44.5 116t-12 121z" />
<glyph unicode="&#xc8;" horiz-adv-x="604" d="M81 0v706h461v-61h-394v-252h357v-62h-357v-269h419v-62h-486zM159 895h106l99 -125h-58z" />
<glyph unicode="&#xc9;" horiz-adv-x="604" d="M81 0v706h461v-61h-394v-252h357v-62h-357v-269h419v-62h-486zM258 770l99 125h105l-147 -125h-57z" />
<glyph unicode="&#xca;" horiz-adv-x="604" d="M81 0v706h461v-61h-394v-252h357v-62h-357v-269h419v-62h-486zM179 772l105 123h42l104 -123h-49l-78 56l-77 -56h-47z" />
<glyph unicode="&#xcb;" horiz-adv-x="604" d="M81 0v706h461v-61h-394v-252h357v-62h-357v-269h419v-62h-486zM160 784v97h67v-97h-67zM379 784v97h67v-97h-67z" />
<glyph unicode="&#xcc;" horiz-adv-x="229" d="M-30 895h106l99 -125h-58zM81 0v706h67v-706h-67z" />
<glyph unicode="&#xcd;" horiz-adv-x="229" d="M54 770l99 125h105l-147 -125h-57zM81 0v706h67v-706h-67z" />
<glyph unicode="&#xce;" horiz-adv-x="229" d="M-7 772l105 123h42l104 -123h-49l-78 56l-77 -56h-47zM81 0v706h67v-706h-67z" />
<glyph unicode="&#xcf;" horiz-adv-x="229" d="M-27 784v97h67v-97h-67zM81 0v706h67v-706h-67zM192 784v97h67v-97h-67z" />
<glyph unicode="&#xd0;" horiz-adv-x="688" d="M0 352v54h81v300h189q71 0 116 -4t77 -17q36 -15 68 -44.5t55.5 -71.5t37.5 -96t14 -117q0 -66 -14.5 -122t-40 -99t-59 -72.5t-71.5 -43.5q-19 -7 -42.5 -11t-47.5 -5.5t-47.5 -2t-43.5 -0.5h-191v352h-81zM149 60h135q57 0 97 5.5t63 16.5q26 13 49 38t40 60t27 78.5 t10 92.5q0 30 -5.5 70t-20.5 80.5t-41.5 75t-69.5 52.5q-28 12 -64 14t-96 2h-124v-239h221v-54h-221v-292z" />
<glyph unicode="&#xd1;" horiz-adv-x="708" d="M81 0v706h66l419 -604q-1 165 -2 296q0 56 -0.5 110t-1 97t-1 70.5t-0.5 30.5h66v-706h-66l-414 610v-610h-66zM200 787q2 6 8 23t17 35t28 31.5t40 13.5q18 0 36 -8.5t35.5 -18t32.5 -18t27 -8.5q20 0 31 16t19 33l39 -19q-9 -19 -17 -36t-18 -30t-23 -20t-32 -7 q-17 0 -36.5 8t-37.5 17.5t-34 17.5t-27 8q-20 0 -29 -15.5t-17 -35.5z" />
<glyph unicode="&#xd2;" horiz-adv-x="708" d="M50 356q0 32 5 72t18 81t35 79.5t56 69t81.5 48.5t110.5 18q70 0 126 -24.5t95 -71t60 -114t21 -152.5q0 -68 -16 -136t-52 -122t-93.5 -88t-140.5 -34q-90 0 -149.5 37t-94 92.5t-48.5 121t-14 123.5zM121 352q0 -22 3 -54t12 -66.5t25 -68.5t41.5 -61t62.5 -43.5 t88 -16.5q68 0 113 31t72 78.5t38 104t11 108.5q0 41 -10 93t-36 98.5t-71 78.5t-114 32q-66 0 -110.5 -28.5t-72.5 -74t-40 -101t-12 -110.5zM208 895h106l99 -125h-58z" />
<glyph unicode="&#xd3;" horiz-adv-x="708" d="M50 356q0 32 5 72t18 81t35 79.5t56 69t81.5 48.5t110.5 18q70 0 126 -24.5t95 -71t60 -114t21 -152.5q0 -68 -16 -136t-52 -122t-93.5 -88t-140.5 -34q-90 0 -149.5 37t-94 92.5t-48.5 121t-14 123.5zM121 352q0 -22 3 -54t12 -66.5t25 -68.5t41.5 -61t62.5 -43.5 t88 -16.5q68 0 113 31t72 78.5t38 104t11 108.5q0 41 -10 93t-36 98.5t-71 78.5t-114 32q-66 0 -110.5 -28.5t-72.5 -74t-40 -101t-12 -110.5zM291 770l99 125h105l-147 -125h-57z" />
<glyph unicode="&#xd4;" horiz-adv-x="708" d="M50 356q0 32 5 72t18 81t35 79.5t56 69t81.5 48.5t110.5 18q70 0 126 -24.5t95 -71t60 -114t21 -152.5q0 -68 -16 -136t-52 -122t-93.5 -88t-140.5 -34q-90 0 -149.5 37t-94 92.5t-48.5 121t-14 123.5zM121 352q0 -22 3 -54t12 -66.5t25 -68.5t41.5 -61t62.5 -43.5 t88 -16.5q68 0 113 31t72 78.5t38 104t11 108.5q0 41 -10 93t-36 98.5t-71 78.5t-114 32q-66 0 -110.5 -28.5t-72.5 -74t-40 -101t-12 -110.5zM231 772l105 123h42l104 -123h-49l-78 56l-77 -56h-47z" />
<glyph unicode="&#xd5;" horiz-adv-x="708" d="M50 356q0 32 5 72t18 81t35 79.5t56 69t81.5 48.5t110.5 18q70 0 126 -24.5t95 -71t60 -114t21 -152.5q0 -68 -16 -136t-52 -122t-93.5 -88t-140.5 -34q-90 0 -149.5 37t-94 92.5t-48.5 121t-14 123.5zM121 352q0 -22 3 -54t12 -66.5t25 -68.5t41.5 -61t62.5 -43.5 t88 -16.5q68 0 113 31t72 78.5t38 104t11 108.5q0 41 -10 93t-36 98.5t-71 78.5t-114 32q-66 0 -110.5 -28.5t-72.5 -74t-40 -101t-12 -110.5zM200 787q2 6 8 23t17 35t28 31.5t40 13.5q18 0 36 -8.5t35.5 -18t32.5 -18t27 -8.5q20 0 31 16t19 33l39 -19q-9 -19 -17 -36 t-18 -30t-23 -20t-32 -7q-17 0 -36.5 8t-37.5 17.5t-34 17.5t-27 8q-20 0 -29 -15.5t-17 -35.5z" />
<glyph unicode="&#xd6;" horiz-adv-x="708" d="M50 356q0 32 5 72t18 81t35 79.5t56 69t81.5 48.5t110.5 18q70 0 126 -24.5t95 -71t60 -114t21 -152.5q0 -68 -16 -136t-52 -122t-93.5 -88t-140.5 -34q-90 0 -149.5 37t-94 92.5t-48.5 121t-14 123.5zM121 352q0 -22 3 -54t12 -66.5t25 -68.5t41.5 -61t62.5 -43.5 t88 -16.5q68 0 113 31t72 78.5t38 104t11 108.5q0 41 -10 93t-36 98.5t-71 78.5t-114 32q-66 0 -110.5 -28.5t-72.5 -74t-40 -101t-12 -110.5zM213 784v97h67v-97h-67zM432 784v97h67v-97h-67z" />
<glyph unicode="&#xd7;" horiz-adv-x="724" d="M150 124l168 168l-168 168l43 43l168 -168l168 168l42 -43l-168 -168l169 -168l-43 -43l-168 169l-169 -168z" />
<glyph unicode="&#xd8;" horiz-adv-x="708" d="M50 356q0 70 17 136.5t54 118t96 82.5t142 31q14 0 37.5 -1.5t52.5 -10t60 -25.5t58 -47l60 74l39 -31l-67 -82q10 -17 21 -39.5t20 -51.5t15 -65.5t6 -83.5q0 -8 -0.5 -27.5t-4 -46t-10.5 -58t-20 -64t-33 -63t-49 -55.5q-28 -24 -56.5 -37t-54 -19.5t-46.5 -7.5t-34 -1 q-41 0 -73 7.5t-56 19.5t-41 25.5t-29 26.5l-59 -71l-37 31l64 78q-9 14 -21.5 37t-24 55t-19 73t-7.5 92zM121 354q0 -12 1 -33.5t5.5 -48t13.5 -57t26 -62.5l354 433q-52 78 -159 78q-50 0 -88 -13.5t-72 -49.5q-15 -16 -29.5 -38t-26 -52.5t-18.5 -69t-7 -87.5zM196 112 q29 -38 71 -54.5t89 -16.5q33 0 58 6t43.5 15.5t32 20.5t22.5 21q46 50 61.5 113.5t15.5 128.5q0 10 -0.5 31t-4.5 48t-11.5 57.5t-22.5 59.5z" />
<glyph unicode="&#xd9;" horiz-adv-x="688" d="M80 249v457h66v-475q0 -59 19.5 -95.5t49 -57t64.5 -27.5t66 -7q95 0 145.5 47.5t50.5 156.5v458h67v-443q0 -58 -12.5 -109.5t-42.5 -89.5t-81 -60t-128 -22q-17 0 -43.5 2.5t-55.5 11t-58.5 26t-53 47t-38.5 73.5t-15 107zM193 895h106l99 -125h-58z" />
<glyph unicode="&#xda;" horiz-adv-x="688" d="M80 249v457h66v-475q0 -59 19.5 -95.5t49 -57t64.5 -27.5t66 -7q95 0 145.5 47.5t50.5 156.5v458h67v-443q0 -58 -12.5 -109.5t-42.5 -89.5t-81 -60t-128 -22q-17 0 -43.5 2.5t-55.5 11t-58.5 26t-53 47t-38.5 73.5t-15 107zM288 770l99 125h105l-147 -125h-57z" />
<glyph unicode="&#xdb;" horiz-adv-x="688" d="M80 249v457h66v-475q0 -59 19.5 -95.5t49 -57t64.5 -27.5t66 -7q95 0 145.5 47.5t50.5 156.5v458h67v-443q0 -58 -12.5 -109.5t-42.5 -89.5t-81 -60t-128 -22q-17 0 -43.5 2.5t-55.5 11t-58.5 26t-53 47t-38.5 73.5t-15 107zM221 772l105 123h42l104 -123h-49l-78 56 l-77 -56h-47z" />
<glyph unicode="&#xdc;" horiz-adv-x="688" d="M80 249v457h66v-475q0 -59 19.5 -95.5t49 -57t64.5 -27.5t66 -7q95 0 145.5 47.5t50.5 156.5v458h67v-443q0 -58 -12.5 -109.5t-42.5 -89.5t-81 -60t-128 -22q-17 0 -43.5 2.5t-55.5 11t-58.5 26t-53 47t-38.5 73.5t-15 107zM202 784v97h67v-97h-67zM421 784v97h67v-97 h-67z" />
<glyph unicode="&#xdd;" horiz-adv-x="625" d="M10 706h79l218 -351l227 351h81l-276 -414v-292h-66v292zM258 770l99 125h105l-147 -125h-57z" />
<glyph unicode="&#xde;" horiz-adv-x="625" d="M81 0v706h64v-109h207q40 0 73 -1.5t60 -7.5t48.5 -18.5t39.5 -35.5q15 -19 23 -39t12 -38t4.5 -32t0.5 -20q0 -46 -12 -77.5t-26 -49.5q-18 -23 -40.5 -37t-47.5 -21t-52 -9t-56 -2h-234v-209h-64zM145 268h232q33 0 64 4t54.5 18.5t38 43t14.5 77.5q0 6 -0.5 15.5 t-3.5 21.5t-8.5 25.5t-16.5 25.5q-25 29 -59 35.5t-83 6.5h-232v-273z" />
<glyph unicode="&#xdf;" horiz-adv-x="500" d="M74 0v492q0 35 2.5 67t12.5 60q20 54 64 79.5t99 25.5q49 0 81.5 -17.5t51.5 -43.5t26.5 -56t7.5 -54q0 -7 -1 -20t-5.5 -29.5t-14.5 -34t-27 -32.5q-21 -18 -40.5 -24t-29.5 -8q44 -5 74.5 -26.5t49 -52.5t27 -68.5t8.5 -73.5q0 -7 -0.5 -21t-4 -31t-10 -36.5 t-18.5 -38.5q-6 -9 -16 -21.5t-25.5 -23.5t-37 -19t-50.5 -8q-14 0 -44 5.5t-64 25.5v68q2 -1 12.5 -8t26 -15.5t33.5 -15t36 -6.5q6 0 15.5 1.5t20 6.5t21 13.5t19.5 23.5q8 14 12.5 30t6.5 31t2.5 26t0.5 14q0 36 -9 69.5t-30.5 59t-57.5 41t-91 15.5h-31v57h13 q10 0 24.5 1t31 3.5t32.5 7.5t29 13q7 5 15.5 13.5t16 21t12.5 29.5t5 39q0 20 -6 40t-19 36t-33.5 26t-48.5 10q-44 0 -68 -18t-35 -45t-13 -57.5t-2 -54.5v-492h-57z" />
<glyph unicode="&#xe0;" horiz-adv-x="500" d="M45 120q0 36 15 61t45 43.5t75 33t104 27.5l80 18v37q0 17 -5 34.5t-17.5 31.5t-34 22.5t-54.5 8.5q-73 0 -101 -28.5t-28 -86.5l-65 11q9 73 56.5 114.5t130.5 41.5q31 0 62.5 -6t56.5 -21.5t40.5 -43.5t15.5 -73v-209q0 -24 1 -41t7 -27.5t18.5 -15.5t34.5 -5h10v-47 h-12q-60 0 -88 18t-28 69q-4 -13 -16.5 -30t-33.5 -32t-50.5 -25t-68.5 -10q-38 0 -66 11t-47 29t-28 41.5t-9 48.5zM91 698h112l113 -140h-53zM102 121q0 -12 5 -26t16.5 -26t30 -19.5t44.5 -7.5q22 0 45 6.5t44 18t38 28t26 37.5q7 15 10 33t3 51v36l-30 -8 q-61 -16 -104.5 -27.5t-72 -24t-42 -29t-13.5 -42.5z" />
<glyph unicode="&#xe1;" horiz-adv-x="500" d="M45 120q0 36 15 61t45 43.5t75 33t104 27.5l80 18v37q0 17 -5 34.5t-17.5 31.5t-34 22.5t-54.5 8.5q-73 0 -101 -28.5t-28 -86.5l-65 11q9 73 56.5 114.5t130.5 41.5q31 0 62.5 -6t56.5 -21.5t40.5 -43.5t15.5 -73v-209q0 -24 1 -41t7 -27.5t18.5 -15.5t34.5 -5h10v-47 h-12q-60 0 -88 18t-28 69q-4 -13 -16.5 -30t-33.5 -32t-50.5 -25t-68.5 -10q-38 0 -66 11t-47 29t-28 41.5t-9 48.5zM102 121q0 -12 5 -26t16.5 -26t30 -19.5t44.5 -7.5q22 0 45 6.5t44 18t38 28t26 37.5q7 15 10 33t3 51v36l-30 -8q-61 -16 -104.5 -27.5t-72 -24t-42 -29 t-13.5 -42.5zM197 558l112 140h111l-170 -140h-53z" />
<glyph unicode="&#xe2;" horiz-adv-x="500" d="M45 120q0 36 15 61t45 43.5t75 33t104 27.5l80 18v37q0 17 -5 34.5t-17.5 31.5t-34 22.5t-54.5 8.5q-73 0 -101 -28.5t-28 -86.5l-65 11q9 73 56.5 114.5t130.5 41.5q31 0 62.5 -6t56.5 -21.5t40.5 -43.5t15.5 -73v-209q0 -24 1 -41t7 -27.5t18.5 -15.5t34.5 -5h10v-47 h-12q-60 0 -88 18t-28 69q-4 -13 -16.5 -30t-33.5 -32t-50.5 -25t-68.5 -10q-38 0 -66 11t-47 29t-28 41.5t-9 48.5zM102 121q0 -12 5 -26t16.5 -26t30 -19.5t44.5 -7.5q22 0 45 6.5t44 18t38 28t26 37.5q7 15 10 33t3 51v36l-30 -8q-61 -16 -104.5 -27.5t-72 -24t-42 -29 t-13.5 -42.5zM110 558l128 138h26l135 -138h-51l-98 65l-89 -65h-51z" />
<glyph unicode="&#xe3;" horiz-adv-x="500" d="M45 120q0 36 15 61t45 43.5t75 33t104 27.5l80 18v37q0 17 -5 34.5t-17.5 31.5t-34 22.5t-54.5 8.5q-73 0 -101 -28.5t-28 -86.5l-65 11q9 73 56.5 114.5t130.5 41.5q31 0 62.5 -6t56.5 -21.5t40.5 -43.5t15.5 -73v-209q0 -24 1 -41t7 -27.5t18.5 -15.5t34.5 -5h10v-47 h-12q-60 0 -88 18t-28 69q-4 -13 -16.5 -30t-33.5 -32t-50.5 -25t-68.5 -10q-38 0 -66 11t-47 29t-28 41.5t-9 48.5zM102 121q0 -12 5 -26t16.5 -26t30 -19.5t44.5 -7.5q22 0 45 6.5t44 18t38 28t26 37.5q7 15 10 33t3 51v36l-30 -8q-61 -16 -104.5 -27.5t-72 -24t-42 -29 t-13.5 -42.5zM102 590q30 88 86 88q13 0 29.5 -5t45.5 -23q20 -13 31 -15.5t16 -2.5q21 0 30.5 15t14.5 28l41 -10q-15 -50 -34 -70t-53 -20q-14 0 -33 7t-52 25q-15 8 -23.5 12t-16.5 4q-14 0 -23.5 -12t-17.5 -32z" />
<glyph unicode="&#xe4;" horiz-adv-x="500" d="M45 120q0 36 15 61t45 43.5t75 33t104 27.5l80 18v37q0 17 -5 34.5t-17.5 31.5t-34 22.5t-54.5 8.5q-73 0 -101 -28.5t-28 -86.5l-65 11q9 73 56.5 114.5t130.5 41.5q31 0 62.5 -6t56.5 -21.5t40.5 -43.5t15.5 -73v-209q0 -24 1 -41t7 -27.5t18.5 -15.5t34.5 -5h10v-47 h-12q-60 0 -88 18t-28 69q-4 -13 -16.5 -30t-33.5 -32t-50.5 -25t-68.5 -10q-38 0 -66 11t-47 29t-28 41.5t-9 48.5zM102 121q0 -12 5 -26t16.5 -26t30 -19.5t44.5 -7.5q22 0 45 6.5t44 18t38 28t26 37.5q7 15 10 33t3 51v36l-30 -8q-61 -16 -104.5 -27.5t-72 -24t-42 -29 t-13.5 -42.5zM122 582v92h61v-92h-61zM294 582v92h61v-92h-61z" />
<glyph unicode="&#xe5;" horiz-adv-x="500" d="M45 120q0 36 15 61t45 43.5t75 33t104 27.5l80 18v37q0 17 -5 34.5t-17.5 31.5t-34 22.5t-54.5 8.5q-73 0 -101 -28.5t-28 -86.5l-65 11q9 73 56.5 114.5t130.5 41.5q31 0 62.5 -6t56.5 -21.5t40.5 -43.5t15.5 -73v-209q0 -24 1 -41t7 -27.5t18.5 -15.5t34.5 -5h10v-47 h-12q-60 0 -88 18t-28 69q-4 -13 -16.5 -30t-33.5 -32t-50.5 -25t-68.5 -10q-38 0 -66 11t-47 29t-28 41.5t-9 48.5zM102 121q0 -12 5 -26t16.5 -26t30 -19.5t44.5 -7.5q22 0 45 6.5t44 18t38 28t26 37.5q7 15 10 33t3 51v36l-30 -8q-61 -16 -104.5 -27.5t-72 -24t-42 -29 t-13.5 -42.5zM162 632q0 32 23 55t56 23t56 -23t23 -56t-23 -56t-56 -23t-56 23t-23 57zM198 630q0 -17 12.5 -29t29.5 -12t29.5 12.5t12.5 29.5t-12.5 29.5t-29.5 12.5t-29.5 -12.5t-12.5 -30.5z" />
<glyph unicode="&#xe6;" horiz-adv-x="833" d="M38 118q0 9 1.5 21t7 25.5t16 27.5t28.5 26q28 20 78 34.5t125 33.5l71 18v49q0 18 -5 32.5t-17.5 25.5t-34 17t-54.5 6q-4 0 -15.5 -0.5t-26 -2.5t-30 -6.5t-27.5 -13.5q-13 -9 -20.5 -22t-11 -25.5t-4 -23.5t-0.5 -14v-4l-66 9q3 21 11.5 48t30 51.5t59.5 41.5t100 17 q24 0 48 -3.5t45.5 -12.5t39 -24.5t28.5 -38.5q26 43 70.5 61t91.5 18q11 0 29 -1.5t39.5 -7.5t44 -19.5t43.5 -37.5t32.5 -51t17.5 -52t7.5 -45.5t1.5 -32.5v-5h-368q0 -3 -0.5 -8.5t-0.5 -13.5q0 -15 2 -34.5t9.5 -40.5t21.5 -41t38 -34q11 -7 34 -16t56 -9q10 0 28 2 t39 12t44 32t43 62l54 -11q-18 -48 -44.5 -75.5t-41.5 -38.5q-18 -12 -37.5 -19t-37.5 -10.5t-31.5 -4.5t-19.5 -1q-34 0 -61 7.5t-47.5 18t-35 23.5t-22.5 23q-6 8 -11.5 17t-13.5 27q-9 -18 -17 -29t-14 -18q-9 -10 -23.5 -22t-35 -22t-47.5 -16.5t-61 -6.5 q-28 0 -55.5 6.5t-49.5 21.5t-35 39.5t-13 60.5zM96 122q0 -13 4 -27t14.5 -25t28.5 -18.5t46 -7.5q37 0 65.5 9.5t49 23t32.5 28.5t17 26q8 18 10 39.5t2 41.5v39q-15 -3 -45.5 -11t-64 -17t-63.5 -18.5t-44 -15.5q-7 -3 -16 -8t-17 -13t-13.5 -19.5t-5.5 -26.5zM424 286 h298q-1 14 -5.5 38.5t-19 49.5t-42.5 43.5t-78 18.5q-19 0 -43.5 -5.5t-47.5 -21.5t-40.5 -45.5t-21.5 -77.5z" />
<glyph unicode="&#xe7;" horiz-adv-x="479" d="M44 235q0 59 17 106t47.5 80t72.5 50.5t92 17.5q38 0 67.5 -9.5t51.5 -26t37.5 -38t24.5 -46.5l-55 -13q-16 40 -51.5 60t-77.5 20q-41 0 -71.5 -16.5t-50.5 -43.5t-30 -63t-10 -75q0 -40 9 -76t28.5 -63t49 -43t70.5 -16q45 0 76.5 20.5t52.5 59.5l60 -14 q-10 -22 -25.5 -42.5t-37.5 -37t-51 -27t-67 -11.5l-18 -35q3 1 11 2t18 1q29 0 49 -17t20 -47q0 -21 -9 -36.5t-23.5 -25.5t-33 -15t-36.5 -5q-9 0 -18.5 1t-18.5 2v27q8 -1 16 -1.5t16 -0.5q30 0 43 12.5t13 27.5q0 12 -11.5 24.5t-38.5 12.5q-7 0 -15.5 -1.5t-22.5 -8.5 v25l34 58q-47 3 -84.5 22t-64 51t-41 76.5t-14.5 97.5z" />
<glyph unicode="&#xe8;" d="M44 243q0 61 19 107t49.5 77t70 46.5t81.5 15.5q51 0 90.5 -20.5t67.5 -54t42.5 -77t14.5 -90.5v-9h-370v-14q0 -27 6.5 -58.5t24.5 -59t49 -46t80 -18.5q16 0 36 3t40.5 13t41 30t37.5 54l55 -16q-8 -18 -22.5 -42t-38.5 -45.5t-59.5 -36t-86.5 -14.5q-73 0 -117.5 28 t-69 68t-33 84t-8.5 75zM89 698h112l113 -140h-53zM110 287h301q-5 46 -21.5 75t-38 45.5t-45 22.5t-43.5 6q-38 0 -65.5 -14t-46 -35.5t-28.5 -48t-13 -51.5z" />
<glyph unicode="&#xe9;" d="M44 243q0 61 19 107t49.5 77t70 46.5t81.5 15.5q51 0 90.5 -20.5t67.5 -54t42.5 -77t14.5 -90.5v-9h-370v-14q0 -27 6.5 -58.5t24.5 -59t49 -46t80 -18.5q16 0 36 3t40.5 13t41 30t37.5 54l55 -16q-8 -18 -22.5 -42t-38.5 -45.5t-59.5 -36t-86.5 -14.5q-73 0 -117.5 28 t-69 68t-33 84t-8.5 75zM110 287h301q-5 46 -21.5 75t-38 45.5t-45 22.5t-43.5 6q-38 0 -65.5 -14t-46 -35.5t-28.5 -48t-13 -51.5zM205 558l112 140h111l-170 -140h-53z" />
<glyph unicode="&#xea;" d="M44 243q0 61 19 107t49.5 77t70 46.5t81.5 15.5q51 0 90.5 -20.5t67.5 -54t42.5 -77t14.5 -90.5v-9h-370v-14q0 -27 6.5 -58.5t24.5 -59t49 -46t80 -18.5q16 0 36 3t40.5 13t41 30t37.5 54l55 -16q-8 -18 -22.5 -42t-38.5 -45.5t-59.5 -36t-86.5 -14.5q-73 0 -117.5 28 t-69 68t-33 84t-8.5 75zM110 287h301q-5 46 -21.5 75t-38 45.5t-45 22.5t-43.5 6q-38 0 -65.5 -14t-46 -35.5t-28.5 -48t-13 -51.5zM120 558l128 138h26l135 -138h-51l-98 65l-89 -65h-51z" />
<glyph unicode="&#xeb;" d="M44 243q0 61 19 107t49.5 77t70 46.5t81.5 15.5q51 0 90.5 -20.5t67.5 -54t42.5 -77t14.5 -90.5v-9h-370v-14q0 -27 6.5 -58.5t24.5 -59t49 -46t80 -18.5q16 0 36 3t40.5 13t41 30t37.5 54l55 -16q-8 -18 -22.5 -42t-38.5 -45.5t-59.5 -36t-86.5 -14.5q-73 0 -117.5 28 t-69 68t-33 84t-8.5 75zM110 287h301q-5 46 -21.5 75t-38 45.5t-45 22.5t-43.5 6q-38 0 -65.5 -14t-46 -35.5t-28.5 -48t-13 -51.5zM145 582v92h61v-92h-61zM317 582v92h61v-92h-61z" />
<glyph unicode="&#xec;" horiz-adv-x="208" d="M-67 698h112l113 -140h-53zM75 0v477h58v-477h-58z" />
<glyph unicode="&#xed;" horiz-adv-x="208" d="M52 558l112 140h111l-170 -140h-53zM75 0v477h58v-477h-58z" />
<glyph unicode="&#xee;" horiz-adv-x="208" d="M-35 558l128 138h26l135 -138h-51l-98 65l-89 -65h-51zM75 0v477h58v-477h-58z" />
<glyph unicode="&#xef;" horiz-adv-x="208" d="M-11 582v92h61v-92h-61zM75 0v477h58v-477h-58zM161 582v92h61v-92h-61z" />
<glyph unicode="&#xf0;" d="M44 233q0 65 17.5 113.5t47 80.5t69 48.5t82.5 16.5q28 0 49.5 -6.5t38 -16.5t29.5 -23t23 -27q-5 22 -18.5 61.5t-48.5 94.5l-159 -51l-16 37l152 48q-25 33 -42.5 51t-34.5 35l43 26q24 -26 42.5 -47t39.5 -49l91 29l15 -38l-81 -26q14 -25 30.5 -58t30.5 -73 t23.5 -87.5t9.5 -102.5q0 -34 -3 -63t-9.5 -54t-18.5 -47t-30 -44q-58 -70 -159 -70q-55 0 -95 21t-66.5 55t-39 77.5t-12.5 88.5zM107 234q0 -52 12.5 -88.5t33.5 -59.5t48 -33t56 -10t57.5 10.5t50.5 34t35.5 61.5t13.5 93q0 53 -12 90.5t-32 62t-47.5 36t-59.5 11.5 q-78 0 -117 -55.5t-39 -152.5z" />
<glyph unicode="&#xf1;" d="M75 0v477h59v-85q2 5 9 20.5t24 32t45.5 29.5t71.5 13q33 0 58 -8t42.5 -20.5t28 -27t16.5 -26.5q12 -26 14.5 -55t2.5 -79v-271h-59v248q0 48 -1.5 78.5t-9.5 51.5q-7 17 -18.5 28t-25.5 17t-28.5 8.5t-26.5 2.5q-37 0 -64 -13t-44.5 -35t-26 -51t-8.5 -62v-273h-59z M113 590q30 88 86 88q13 0 29.5 -5t45.5 -23q20 -13 31 -15.5t16 -2.5q21 0 30.5 15t14.5 28l41 -10q-15 -50 -34 -70t-53 -20q-14 0 -33 7t-52 25q-15 8 -23.5 12t-16.5 4q-14 0 -23.5 -12t-17.5 -32z" />
<glyph unicode="&#xf2;" d="M44 233q0 56 15 102.5t43 81t68.5 53.5t91.5 19q56 0 96 -21.5t66.5 -57t39 -80t13.5 -90.5q0 -66 -19.5 -114t-51 -78.5t-70.5 -45t-78 -14.5q-46 0 -85.5 16.5t-68 48t-44.5 77t-16 103.5zM88 698h112l113 -140h-53zM107 233q0 -55 13 -92t34.5 -59.5t49 -32t55.5 -9.5 t55.5 10t49.5 33t36 62t14 97q0 56 -13.5 93.5t-35 60.5t-49 33t-55.5 10q-32 0 -60 -12t-49 -37.5t-33 -64t-12 -92.5z" />
<glyph unicode="&#xf3;" d="M44 233q0 56 15 102.5t43 81t68.5 53.5t91.5 19q56 0 96 -21.5t66.5 -57t39 -80t13.5 -90.5q0 -66 -19.5 -114t-51 -78.5t-70.5 -45t-78 -14.5q-46 0 -85.5 16.5t-68 48t-44.5 77t-16 103.5zM107 233q0 -55 13 -92t34.5 -59.5t49 -32t55.5 -9.5t55.5 10t49.5 33t36 62 t14 97q0 56 -13.5 93.5t-35 60.5t-49 33t-55.5 10q-32 0 -60 -12t-49 -37.5t-33 -64t-12 -92.5zM208 558l112 140h111l-170 -140h-53z" />
<glyph unicode="&#xf4;" d="M44 233q0 56 15 102.5t43 81t68.5 53.5t91.5 19q56 0 96 -21.5t66.5 -57t39 -80t13.5 -90.5q0 -66 -19.5 -114t-51 -78.5t-70.5 -45t-78 -14.5q-46 0 -85.5 16.5t-68 48t-44.5 77t-16 103.5zM107 233q0 -55 13 -92t34.5 -59.5t49 -32t55.5 -9.5t55.5 10t49.5 33t36 62 t14 97q0 56 -13.5 93.5t-35 60.5t-49 33t-55.5 10q-32 0 -60 -12t-49 -37.5t-33 -64t-12 -92.5zM120 558l128 138h26l135 -138h-51l-98 65l-89 -65h-51z" />
<glyph unicode="&#xf5;" d="M44 233q0 56 15 102.5t43 81t68.5 53.5t91.5 19q56 0 96 -21.5t66.5 -57t39 -80t13.5 -90.5q0 -66 -19.5 -114t-51 -78.5t-70.5 -45t-78 -14.5q-46 0 -85.5 16.5t-68 48t-44.5 77t-16 103.5zM107 233q0 -55 13 -92t34.5 -59.5t49 -32t55.5 -9.5t55.5 10t49.5 33t36 62 t14 97q0 56 -13.5 93.5t-35 60.5t-49 33t-55.5 10q-32 0 -60 -12t-49 -37.5t-33 -64t-12 -92.5zM113 590q30 88 86 88q13 0 29.5 -5t45.5 -23q20 -13 31 -15.5t16 -2.5q21 0 30.5 15t14.5 28l41 -10q-15 -50 -34 -70t-53 -20q-14 0 -33 7t-52 25q-15 8 -23.5 12t-16.5 4 q-14 0 -23.5 -12t-17.5 -32z" />
<glyph unicode="&#xf6;" d="M44 233q0 56 15 102.5t43 81t68.5 53.5t91.5 19q56 0 96 -21.5t66.5 -57t39 -80t13.5 -90.5q0 -66 -19.5 -114t-51 -78.5t-70.5 -45t-78 -14.5q-46 0 -85.5 16.5t-68 48t-44.5 77t-16 103.5zM107 233q0 -55 13 -92t34.5 -59.5t49 -32t55.5 -9.5t55.5 10t49.5 33t36 62 t14 97q0 56 -13.5 93.5t-35 60.5t-49 33t-55.5 10q-32 0 -60 -12t-49 -37.5t-33 -64t-12 -92.5zM144 582v92h61v-92h-61zM316 582v92h61v-92h-61z" />
<glyph unicode="&#xf7;" horiz-adv-x="724" d="M79 262v60h566v-60h-566zM329 95v94h68v-94h-68zM329 396v94h68v-94h-68z" />
<glyph unicode="&#xf8;" d="M44 237q0 48 14 93.5t41.5 80.5t68 56.5t93.5 21.5q15 0 41.5 -3.5t58.5 -22.5l23 41l39 -23l-26 -45q8 -7 21.5 -22t26.5 -39t22.5 -57.5t9.5 -77.5q0 -14 -2.5 -44.5t-16.5 -66.5q-6 -16 -19 -40t-36.5 -46.5t-58 -38.5t-84.5 -16q-36 0 -63.5 8.5t-39.5 17.5l-21 -36 l-37 22l21 38q-6 6 -18.5 21.5t-25.5 40.5t-22.5 59t-9.5 78zM104 235q0 -56 16.5 -92t28.5 -54l187 329q-10 6 -21 10q-10 4 -23.5 7t-28.5 3q-42 0 -72 -18.5t-49.5 -48t-28.5 -65.5t-9 -71zM182 60q11 -6 28.5 -13t46.5 -7q34 0 62 11t51 37q18 20 32 55t14 95 q0 31 -4 54.5t-10.5 42t-14.5 32t-16 24.5z" />
<glyph unicode="&#xf9;" d="M75 243v234h60v-247q0 -44 1.5 -70t6.5 -46q3 -11 9 -23t17.5 -22.5t29 -17.5t43.5 -7q9 0 22.5 1t29 6t31.5 16t30 30q22 30 27 66t5 73v241h59v-477h-59v86q-20 -45 -55.5 -71t-96.5 -26q-50 0 -90.5 25.5t-56.5 75.5q-8 25 -10.5 60.5t-2.5 92.5zM88 698h112l113 -140 h-53z" />
<glyph unicode="&#xfa;" d="M75 243v234h60v-247q0 -44 1.5 -70t6.5 -46q3 -11 9 -23t17.5 -22.5t29 -17.5t43.5 -7q9 0 22.5 1t29 6t31.5 16t30 30q22 30 27 66t5 73v241h59v-477h-59v86q-20 -45 -55.5 -71t-96.5 -26q-50 0 -90.5 25.5t-56.5 75.5q-8 25 -10.5 60.5t-2.5 92.5zM208 558l112 140h111 l-170 -140h-53z" />
<glyph unicode="&#xfb;" d="M75 243v234h60v-247q0 -44 1.5 -70t6.5 -46q3 -11 9 -23t17.5 -22.5t29 -17.5t43.5 -7q9 0 22.5 1t29 6t31.5 16t30 30q22 30 27 66t5 73v241h59v-477h-59v86q-20 -45 -55.5 -71t-96.5 -26q-50 0 -90.5 25.5t-56.5 75.5q-8 25 -10.5 60.5t-2.5 92.5zM120 558l128 138h26 l135 -138h-51l-98 65l-89 -65h-51z" />
<glyph unicode="&#xfc;" d="M75 243v234h60v-247q0 -44 1.5 -70t6.5 -46q3 -11 9 -23t17.5 -22.5t29 -17.5t43.5 -7q9 0 22.5 1t29 6t31.5 16t30 30q22 30 27 66t5 73v241h59v-477h-59v86q-20 -45 -55.5 -71t-96.5 -26q-50 0 -90.5 25.5t-56.5 75.5q-8 25 -10.5 60.5t-2.5 92.5zM144 582v92h61v-92 h-61zM316 582v92h61v-92h-61z" />
<glyph unicode="&#xfd;" horiz-adv-x="437" d="M11 -163q20 -14 35 -18.5t27 -4.5q13 0 21.5 4t15.5 13t13.5 22.5t13.5 32.5l44 114l-165 477h57l139 -406l155 406h60l-225 -570q-14 -37 -26 -65t-25.5 -46.5t-31.5 -28t-45 -9.5q-25 0 -40 7t-23 12v60zM166 558l112 140h111l-170 -140h-53z" />
<glyph unicode="&#xfe;" d="M75 -253v959h58v-307q15 33 36.5 50.5t43 26t39.5 10t25 1.5q62 0 101 -28t61 -67.5t30 -82t8 -71.5q0 -40 -11 -84t-34.5 -80.5t-61 -60.5t-90.5 -24q-30 0 -54.5 8t-43.5 20.5t-31.5 29t-17.5 33.5v-333h-58zM133 215q0 -75 34.5 -122.5t99.5 -47.5q44 0 73 20.5 t46 50.5t23.5 64.5t6.5 62.5q0 51 -12.5 87t-33 59t-47 33.5t-55.5 10.5q-44 0 -70.5 -19.5t-41 -48t-19 -61t-4.5 -59.5v-30z" />
<glyph unicode="&#xff;" horiz-adv-x="437" d="M11 -163q20 -14 35 -18.5t27 -4.5q13 0 21.5 4t15.5 13t13.5 22.5t13.5 32.5l44 114l-165 477h57l139 -406l155 406h60l-225 -570q-14 -37 -26 -65t-25.5 -46.5t-31.5 -28t-45 -9.5q-25 0 -40 7t-23 12v60zM103 582v92h61v-92h-61zM275 582v92h61v-92h-61z" />
<glyph unicode="&#x131;" horiz-adv-x="208" d="M75 0v477h58v-477h-58z" />
<glyph unicode="&#x141;" horiz-adv-x="562" d="M0 202v60l81 53v391h68v-348l216 140v-61l-216 -139v-236h390v-62h-458v254z" />
<glyph unicode="&#x142;" horiz-adv-x="208" d="M0 290v60l74 49v307h60v-269l74 48v-59l-74 -49v-377h-60v339z" />
<glyph unicode="&#x152;" horiz-adv-x="1062" d="M50 352q0 19 3 55t18 84q17 53 43 90.5t56 63t62.5 41t63.5 23t58 10t45 2.5q44 0 77 -6t49 -9h476v-58h-408v-256h370v-62h-370v-270h433v-60h-491q-20 -5 -54 -11.5t-84 -6.5q-18 0 -59.5 4t-88.5 24q-53 23 -90.5 59t-61.5 81t-35.5 96.5t-11.5 105.5zM120 346 q0 -16 2.5 -49t15.5 -71.5t39.5 -77.5t75.5 -67q25 -14 49.5 -22t46 -11.5t38.5 -4.5t27 -1q42 0 67.5 6t43.5 12v588q-13 2 -45 6.5t-71 4.5q-44 0 -79 -8t-62 -20.5t-46 -27.5t-31 -29t-24.5 -35t-23 -49t-17 -64t-6.5 -80z" />
<glyph unicode="&#x153;" horiz-adv-x="896" d="M44 235q0 35 9.5 79t34.5 83t67.5 65.5t109.5 26.5q18 0 43 -3.5t51 -15t50 -34t39 -60.5q11 20 27 40.5t39 36.5t53 26t68 10q10 0 25.5 -1t34.5 -6t40 -15t41 -28q14 -12 28 -30.5t25 -43t18 -56.5t7 -71h-371q-1 -5 -1 -11v-14q0 -29 8.5 -59.5t27 -56t48.5 -41.5 t72 -16q11 0 30.5 2.5t42.5 13t46 31t40 56.5l57 -15q-11 -23 -27 -48t-41.5 -45.5t-61.5 -33.5t-86 -13q-46 0 -78 12t-54.5 29.5t-36 37t-21.5 35.5q-10 -28 -29 -49.5t-44 -35.5t-54.5 -21.5t-59.5 -7.5q-49 0 -89 18t-68.5 51t-44 78.5t-15.5 99.5zM108 240 q0 -66 18 -105.5t43 -60.5t51.5 -27.5t42.5 -6.5q44 0 74 17t48.5 45t26.5 63t8 71q0 29 -6 63.5t-23 65.5t-47 51.5t-77 20.5q-34 0 -63 -12.5t-50.5 -37.5t-33.5 -61.5t-12 -85.5zM483 288h303q0 21 -8 47t-25.5 48.5t-45.5 37.5t-69 15q-68 0 -106.5 -42.5t-48.5 -105.5z " />
<glyph unicode="&#x160;" horiz-adv-x="604" d="M49 178l67 35q2 -32 5.5 -48.5t10.5 -30.5q8 -16 22 -33t35.5 -30t52 -21.5t70.5 -8.5q49 0 85.5 12t61 33t36.5 48t12 57q0 59 -37.5 90t-112.5 51l-81 21q-30 8 -63.5 20t-62 33t-47 53.5t-18.5 81.5q0 37 14 70t42.5 58t72.5 40t104 15q36 0 72.5 -7t68.5 -24.5 t58.5 -47.5t43.5 -76l-62 -33q-5 17 -11.5 32t-17.5 29q-7 11 -20 23.5t-32 23.5t-44.5 18t-57.5 7q-46 0 -77.5 -11.5t-51 -29.5t-28.5 -40.5t-9 -44.5q0 -34 14 -56.5t35.5 -37t48.5 -23t52 -15.5l68 -18q48 -13 86 -30t65 -41t41.5 -55.5t14.5 -73.5q0 -14 -3 -33 t-12 -40.5t-26 -44t-46 -43.5q-12 -9 -28.5 -17.5t-37.5 -16t-48 -12t-62 -4.5q-51 0 -94 11t-77 35t-57.5 61t-34.5 89zM177 895h49l77 -56l78 56h46l-104 -123h-42z" />
<glyph unicode="&#x161;" horiz-adv-x="458" d="M34 116l58 20q3 -12 11.5 -28.5t24.5 -31t40 -24.5t57 -10q35 0 58 8.5t37.5 22t20.5 30t6 32.5q0 31 -22 52t-81 34l-56 12q-56 12 -90 39t-34 80q0 6 1 17.5t5 25t12.5 27.5t22.5 27q25 23 61.5 31.5t68.5 8.5q5 0 18 -0.5t29.5 -3.5t35 -9t34.5 -18q28 -20 38.5 -42.5 t13.5 -34.5l-56 -15q-4 21 -16 34.5t-28 21.5t-35 11.5t-37 3.5q-36 0 -58 -8.5t-33.5 -20.5t-15 -26t-3.5 -25q0 -21 10 -34.5t25 -22t32.5 -13t32.5 -7.5l50 -10q63 -13 97.5 -48t34.5 -91q0 -21 -9 -45.5t-30 -46.5t-55 -36.5t-84 -14.5q-15 0 -39.5 3t-52 15.5t-54.5 38 t-46 71.5zM82 696h51l98 -65l90 65h50l-127 -138h-27z" />
<glyph unicode="&#x178;" horiz-adv-x="625" d="M10 706h79l218 -351l227 351h81l-276 -414v-292h-66v292zM170 784v97h67v-97h-67zM389 784v97h67v-97h-67z" />
<glyph unicode="&#x17d;" horiz-adv-x="583" d="M29 0v44l435 602h-409v60h499v-46l-430 -600h424v-60h-519zM167 895h49l77 -56l78 56h46l-104 -123h-42z" />
<glyph unicode="&#x17e;" horiz-adv-x="396" d="M28 0v37l258 389h-236v51h319v-35l-258 -389h265v-53h-348zM51 696h51l98 -65l90 65h50l-127 -138h-27z" />
<glyph unicode="&#x192;" horiz-adv-x="333" d="M-92 -232l15 55q5 -2 13.5 -5t19.5 -3q25 0 35 19.5t16 44.5q27 112 52 215q11 44 22 90.5t22 90.5t20.5 83t16.5 68h-73l11 45h72l33 132q5 21 12.5 41t19.5 35.5t29.5 25t44.5 9.5q13 0 26.5 -3t25.5 -7l-14 -57q-5 1 -15.5 3.5t-15.5 2.5q-17 0 -27.5 -8t-16.5 -20 t-9 -25.5t-6 -24.5l-25 -104h85l-11 -45h-84l-140 -573q-1 -6 -6 -21.5t-17 -32.5t-31 -30t-47 -13q-18 0 -32.5 4.5t-20.5 7.5z" />
<glyph unicode="&#x2c6;" horiz-adv-x="271" d="M-9 558l128 138h26l135 -138h-51l-98 65l-89 -65h-51z" />
<glyph unicode="&#x2c7;" horiz-adv-x="271" d="M-9 696h51l98 -65l90 65h50l-127 -138h-27z" />
<glyph unicode="&#x2d8;" horiz-adv-x="271" d="M-5 684h44q6 -23 19 -36t27.5 -19t27.5 -7.5t17 -1.5q12 0 28 3t31.5 10t27.5 19.5t15 31.5h44q-10 -53 -50 -86.5t-97 -33.5q-25 0 -48 8t-41.5 23.5t-30.5 38t-14 50.5z" />
<glyph unicode="&#x2d9;" horiz-adv-x="271" d="M105 582v92h61v-92h-61z" />
<glyph unicode="&#x2da;" horiz-adv-x="271" d="M56 632q0 32 23 55t56 23t56 -23t23 -56t-23 -56t-56 -23t-56 23t-23 57zM92 630q0 -17 12.5 -29t29.5 -12t29.5 12.5t12.5 29.5t-12.5 29.5t-29.5 12.5t-29.5 -12.5t-12.5 -30.5z" />
<glyph unicode="&#x2db;" horiz-adv-x="271" d="M70 -97q0 15 7 29t18 27t24 25t26 22h28q9 0 19 -1q-2 -1 -12.5 -8.5t-22 -18.5t-21 -25.5t-9.5 -29.5q0 -14 7 -22t16.5 -12t20.5 -5t18 -1h12v-46q-7 -1 -12.5 -1h-12.5q-49 0 -77.5 17.5t-28.5 49.5z" />
<glyph unicode="&#x2dc;" horiz-adv-x="271" d="M-11 590q30 88 86 88q13 0 29.5 -5t45.5 -23q20 -13 31 -15.5t16 -2.5q21 0 30.5 15t14.5 28l41 -10q-15 -50 -34 -70t-53 -20q-14 0 -33 7t-52 25q-15 8 -23.5 12t-16.5 4q-14 0 -23.5 -12t-17.5 -32z" />
<glyph unicode="&#x2dd;" horiz-adv-x="271" d="M-43 558l108 140h102l-164 -140h-46zM104 558l108 140h102l-164 -140h-46z" />
<glyph unicode="&#x37e;" horiz-adv-x="208" d="M86 0v116h79v-115q0 -25 -2 -45t-7.5 -38.5t-14.5 -36.5t-23 -39l-32 23q12 19 19 34t11.5 30t6 32t1.5 39h-38zM86 352v116h79v-116h-79z" />
<glyph unicode="&#x394;" horiz-adv-x="603" d="M-5 0l278 706h59l276 -706h-613zM89 62h423l-212 552z" />
<glyph unicode="&#x3a9;" horiz-adv-x="733" d="M53 0v62h150q-142 97 -142 310q0 82 21.5 147t61 110.5t96.5 70t129 24.5q69 0 124.5 -24t94.5 -68t60 -107.5t21 -141.5q0 -109 -38.5 -191.5t-115.5 -129.5h165v-62h-261v62q46 13 79.5 43.5t55.5 73.5t33 95t11 107q0 66 -16 119t-46 90.5t-72.5 58t-95.5 20.5 q-60 0 -104 -23.5t-73.5 -64t-44 -95t-14.5 -116.5q0 -52 10 -103t31.5 -93t56.5 -72t84 -40v-62h-261z" />
<glyph unicode="&#x3bc;" horiz-adv-x="536" d="M81 -216v687h61v-246q0 -54 5 -83.5t18 -49.5q14 -22 39.5 -35t53.5 -13q35 0 64.5 19t46.5 53q6 12 10 23t6 25.5t3 33.5t1 46v227h61v-357q0 -44 6.5 -58.5t26.5 -14.5q7 0 12 1t15 6v-50q-13 -4 -20.5 -5t-16.5 -1q-41 0 -59.5 19t-20.5 62q-25 -45 -56 -65t-79 -20 q-39 0 -66.5 13.5t-50.5 45.5q1 -69 2 -124q0 -24 0.5 -47t1 -42.5t0.5 -33v-16.5h-64z" />
<glyph unicode="&#x3c0;" horiz-adv-x="607" d="M74 414v57h453v-57h-55v-316q0 -24 12 -37.5t38 -13.5h20v-47h-29q-34 0 -54.5 8t-30.5 21t-13 30t-3 35v320h-223v-414h-61v414h-54z" />
<glyph unicode="&#x2013;" horiz-adv-x="565" d="M38 264v60h489v-60h-489z" />
<glyph unicode="&#x2014;" horiz-adv-x="843" d="M38 264v60h767v-60h-767z" />
<glyph unicode="&#x2018;" horiz-adv-x="167" d="M44 432v93q0 27 1.5 50t6 44.5t13.5 42.5t25 44l32 -22q-11 -19 -18.5 -34t-12 -30t-6 -32t-1.5 -39h38v-117h-78z" />
<glyph unicode="&#x2019;" horiz-adv-x="167" d="M44 455q12 19 19 34t11.5 30.5t6 32t1.5 38.5h-38v116h79v-98q0 -27 -1.5 -49t-6 -42.5t-13.5 -40.5t-25 -44z" />
<glyph unicode="&#x201a;" horiz-adv-x="167" d="M44 0v116h79v-98q0 -27 -1.5 -49.5t-6 -42.5t-13.5 -40.5t-25 -43.5l-33 23q12 19 19 34t11.5 30.5t6 32t1.5 38.5h-38z" />
<glyph unicode="&#x201c;" horiz-adv-x="292" d="M44 432v93q0 28 1.5 51t6 44t13.5 41.5t25 44.5l33 -22q-23 -28 -31 -64t-8 -71h39v-117h-79zM169 432v111q0 24 2 45t7 40.5t14 38t23 39.5l33 -22q-12 -19 -19 -34t-11.5 -30t-6 -32t-1.5 -39h38v-117h-79z" />
<glyph unicode="&#x201d;" horiz-adv-x="292" d="M44 455q22 32 30 62.5t8 72.5h-38v116h79v-120q0 -24 -2 -43.5t-7.5 -37.5t-14 -35.5t-22.5 -37.5zM169 455q22 32 30 62t8 73h-38v116h79v-120q0 -24 -2 -43.5t-7.5 -37.5t-14 -35.5t-22.5 -37.5z" />
<glyph unicode="&#x201e;" horiz-adv-x="292" d="M44 0v116h79v-120q0 -24 -2 -43.5t-7.5 -37.5t-14 -35.5t-22.5 -37.5l-33 23q22 32 30 62.5t8 72.5h-38zM169 0v116h79v-120q0 -24 -2 -43.5t-7.5 -37.5t-14 -35.5t-22.5 -37.5l-33 23q22 32 30 62t8 73h-38z" />
<glyph unicode="&#x2020;" horiz-adv-x="562" d="M89 440v59h160v207h68v-207h157v-59h-157v-440h-68v440h-160z" />
<glyph unicode="&#x2021;" horiz-adv-x="562" d="M89 213v59h160v180h-160v59h160v195h68v-195h157v-59h-157v-180h157v-59h-157v-213h-68v213h-160z" />
<glyph unicode="&#x2022;" horiz-adv-x="333" d="M57 247v218h220v-218h-220z" />
<glyph unicode="&#x2026;" horiz-adv-x="1000" d="M125 0v82h82v-82h-82zM458 0v82h82v-82h-82zM792 0v82h82v-82h-82z" />
<glyph unicode="&#x2030;" horiz-adv-x="1250" d="M31 489q0 42 8.5 82t27.5 72t49 51.5t73 19.5q51 0 81.5 -25.5t47 -62t21.5 -76.5t5 -70q0 -48 -10 -89t-30 -70.5t-49.5 -46.5t-67.5 -17q-46 0 -76 22.5t-48 56.5t-25 74.5t-7 78.5zM82 483q0 -8 0.5 -24.5t4 -36.5t10 -41.5t18.5 -39t29.5 -28.5t43.5 -11 q35 0 55.5 19.5t31.5 48t14.5 60.5t3.5 56q0 85 -28 134.5t-76 49.5q-30 0 -50.5 -15.5t-33 -41.5t-18 -59.5t-5.5 -70.5zM245 -21l351 770l42 -19l-353 -769zM530 224q0 42 8.5 82t27.5 72t49 51.5t73 19.5q51 0 81.5 -25.5t47 -62t21.5 -76.5t5 -70q0 -48 -10 -89 t-30 -70.5t-49.5 -46.5t-67.5 -17q-46 0 -76 22.5t-48 56.5t-25 74.5t-7 78.5zM581 218q0 -8 0.5 -24.5t4 -36.5t10 -41.5t18.5 -39t29.5 -28.5t43.5 -11q35 0 55.5 19.5t31.5 48t14.5 60.5t3.5 56q0 85 -28 134.5t-76 49.5q-30 0 -50.5 -15.5t-33 -41.5t-18 -59.5 t-5.5 -70.5zM906 224q0 42 8.5 82t27.5 72t49 51.5t73 19.5q51 0 81.5 -25.5t47 -62t21.5 -76.5t5 -70q0 -48 -10 -89t-30 -70.5t-49.5 -46.5t-67.5 -17q-46 0 -76 22.5t-48 56.5t-25 74.5t-7 78.5zM957 218q0 -8 0.5 -24.5t4 -36.5t10 -41.5t18.5 -39t29.5 -28.5t43.5 -11 q35 0 55.5 19.5t31.5 48t14.5 60.5t3.5 56q0 85 -28 134.5t-76 49.5q-30 0 -50.5 -15.5t-33 -41.5t-18 -59.5t-5.5 -70.5z" />
<glyph unicode="&#x2039;" horiz-adv-x="250" d="M43 309l119 185l47 -30l-99 -155l99 -141l-47 -31z" />
<glyph unicode="&#x203a;" horiz-adv-x="250" d="M41 167l99 155l-99 141l47 31l119 -172l-119 -185z" />
<glyph unicode="&#x2044;" horiz-adv-x="125" d="M-134 -21l352 770l41 -19l-353 -769z" />
<glyph unicode="&#x20ac;" horiz-adv-x="634" d="M21 271l20 53h52v29.5t2 29.5h-74l19 53h61q8 61 32.5 111t63 85.5t90 55t114.5 19.5t117 -19t96 -68l-27 -66q-33 54 -84 75t-112 21q-49 0 -87 -16.5t-65.5 -45t-44.5 -68t-25 -84.5h374l-19 -53h-360q-2 -8 -2 -14.5v-14.5v-15t1 -15h338l-19 -53h-315 q6 -49 23.5 -91.5t47 -73.5t70.5 -48.5t93 -17.5q25 0 52 5t52.5 15t48 25t38.5 35v-77q-24 -17 -47 -29t-46.5 -19t-49 -10t-54.5 -3q-66 0 -118 21.5t-89.5 59.5t-60 91.5t-30.5 116.5h-76z" />
<glyph unicode="&#x2122;" horiz-adv-x="683" d="M24 665v41h244v-41h-98v-291h-48v291h-98zM305 374v332h67l86 -272l83 272h68v-332h-46v17v35t0.5 46t0.5 51q1 61 1 136l-87 -285h-42l-89 284q1 -75 2 -136q0 -26 0.5 -51t1 -45.5t0.5 -34.5v-17h-46z" />
<glyph unicode="&#x2202;" horiz-adv-x="531" d="M45 198q0 51 15 92.5t42.5 71t66 46t85.5 16.5q39 0 72 -10.5t65 -33.5v15q0 61 -8 110.5t-26.5 85t-47.5 54.5t-71 19q-20 0 -40 -3.5t-52 -14.5l-10 55q57 20 110 20q107 0 157.5 -84t50.5 -265q0 -92 -11.5 -163t-37.5 -119.5t-67 -73.5t-100 -25q-43 0 -78.5 15 t-61 42.5t-39.5 65.5t-14 84zM108 196q0 -71 34 -111t94 -40q75 0 112 64.5t39 201.5q-33 31 -65.5 44.5t-70.5 13.5q-66 0 -104.5 -46t-38.5 -127z" />
<glyph unicode="&#x2206;" horiz-adv-x="603" d="M-5 0l278 706h59l276 -706h-613zM89 62h423l-212 552z" />
<glyph unicode="&#x220f;" horiz-adv-x="706" d="M76 -122v828h554v-828h-67v768h-421v-768h-66z" />
<glyph unicode="&#x2211;" horiz-adv-x="585" d="M30 -63l295 366l-295 342v61h530v-60h-444l297 -342l-301 -364h448v-62h-530v59z" />
<glyph unicode="&#x221a;" horiz-adv-x="725" d="M73 142l126 63l135 -305l238 806h65l-268 -891h-62l-142 308l-67 -33z" />
<glyph unicode="&#x221e;" horiz-adv-x="724" d="M31 288q0 39 12 72t33.5 57t50.5 38t62 14q55 0 96.5 -35t79.5 -95q26 36 48 61t43 40.5t42 22t43 6.5q33 0 60.5 -13.5t48 -36.5t32 -55t11.5 -70q0 -39 -12.5 -72t-34.5 -57.5t-51.5 -38.5t-63.5 -14q-53 0 -92 32t-82 96q-40 -60 -83.5 -93.5t-92.5 -33.5 q-32 0 -59.5 13t-47.5 36.5t-31.5 55.5t-11.5 70zM92 293q0 -54 25.5 -89t66.5 -35q15 0 29.5 6t31 19.5t36.5 37t46 57.5q-72 123 -143 123q-41 0 -66.5 -33t-25.5 -86zM397 293q34 -60 70.5 -92.5t73.5 -32.5q41 0 66.5 33.5t25.5 86.5q0 27 -6.5 49.5t-18.5 39t-28.5 26 t-36.5 9.5q-32 0 -65.5 -27t-80.5 -92z" />
<glyph unicode="&#x222b;" horiz-adv-x="328" d="M40 -103q15 -9 25 -12.5t22 -3.5q26 0 36 16t10 59v664q0 48 25 74.5t75 26.5q16 0 29.5 -2.5t30.5 -9.5v-62q-17 11 -28.5 15.5t-22.5 4.5q-18 0 -32.5 -12.5t-14.5 -54.5v-643q0 -38 -2.5 -57.5t-10.5 -33.5q-22 -42 -88 -42q-14 0 -25.5 2t-28.5 8v63z" />
<glyph unicode="&#x2248;" horiz-adv-x="724" d="M75 177q38 52 73.5 75t83.5 23q14 0 25.5 -1.5t26.5 -5.5t35 -12t51 -22l41 -18q34 -15 49.5 -19.5t29.5 -4.5q29 0 56.5 16t63.5 58l40 -39q-45 -54 -83.5 -75t-81.5 -21q-23 0 -54 10t-65 26l-36 17q-35 17 -58.5 23.5t-45.5 6.5q-15 0 -26 -3.5t-22 -11t-23.5 -20 t-29.5 -31.5l-10 -11zM75 357q38 53 74 75.5t83 22.5q15 0 25.5 -1t24.5 -5.5t34.5 -12.5t53.5 -22l41 -17q18 -7 30 -12t20.5 -8t15 -4t13.5 -1q15 0 29 3.5t28 12.5t29 23.5t34 35.5l40 -40q-46 -53 -84 -74.5t-81 -21.5q-10 0 -20.5 1.5t-24 6t-31.5 11.5t-43 18l-36 16 q-35 16 -58.5 23t-45.5 7q-15 0 -26 -3.5t-22 -11t-23.5 -20t-29.5 -31.5l-10 -11z" />
<glyph unicode="&#x2260;" horiz-adv-x="724" d="M99 173v58h203l56 118h-259v59h290l83 167h58l-82 -167h177v-59h-208l-57 -118h265v-58h-293l-87 -179h-59l87 179h-174z" />
<glyph unicode="&#x2264;" horiz-adv-x="724" d="M129 0v60h466v-60h-466zM129 337v67l466 229v-65l-409 -198l409 -200v-64z" />
<glyph unicode="&#x2265;" horiz-adv-x="724" d="M128 106v64l409 199l-409 199v65l466 -231v-68zM129 0v60h466v-60h-466z" />
<glyph unicode="&#x25ca;" horiz-adv-x="724" d="M154 353l180 353h63l174 -353l-180 -353h-63zM220 354l141 -293l146 294l-142 291z" />
<glyph unicode="&#xe000;" horiz-adv-x="475" d="M0 0v475h475v-475h-475z" />
</font>
</defs>
</svg>
